<?xml version="1.0" standalone="no"?>
<!DOCTYPE svg PUBLIC "-//W3C//DTD SVG 1.1//EN" "http://www.w3.org/Graphics/SVG/1.1/DTD/svg11.dtd" >
<svg xmlns="http://www.w3.org/2000/svg" xmlns:xlink="http://www.w3.org/1999/xlink" version="1.1">
<metadata>
Created by FontForge 20200314 at Tue May  1 16:30:49 2007
 By Unknown
2003 Morten Rostgaard Olsen, published by FontShop International for the FontFont library.
</metadata>
<defs>
<font id="Max-Regular" horiz-adv-x="589" >
  <font-face 
    font-family="Max-Regular"
    font-weight="500"
    font-stretch="normal"
    units-per-em="1000"
    panose-1="0 0 0 0 0 0 0 0 0 0"
    ascent="800"
    descent="-200"
    x-height="525"
    cap-height="752"
    bbox="-65 -253 1201 991"
    underline-thickness="50"
    underline-position="-125"
    stemh="71"
    stemv="93"
    unicode-range="U+0020-00FF"
  />
<missing-glyph horiz-adv-x="1000" 
 />
    <glyph glyph-name=".notdef" horiz-adv-x="1000" 
 />
    <glyph glyph-name="space" unicode=" " horiz-adv-x="310" 
 />
    <glyph glyph-name="exclam" unicode="!" horiz-adv-x="283" 
d="M195 741l-9 -522c0 -5 -4 -9 -10 -9h-63c-6 0 -10 4 -10 10l-10 500v1c0 8 5 12 14 14l77 17h2c5 0 9 -5 9 -11zM195 16c0 -10 -5 -16 -15 -16h-71c-10 0 -16 6 -16 16v113c0 10 6 16 16 16h71c10 0 15 -6 15 -16v-113z" />
    <glyph glyph-name="quotedbl" unicode="&#x22;" horiz-adv-x="335" 
d="M139 728l-15 -219c0 -6 -5 -11 -11 -11h-55c-6 0 -11 5 -11 11v219c0 6 5 11 11 11h70c5 0 11 -4 11 -10v-1zM288 728l-15 -219c0 -6 -5 -11 -11 -11h-55c-6 0 -11 5 -11 11v219c0 6 5 11 11 11h70c5 0 11 -4 11 -10v-1z" />
    <glyph glyph-name="numbersign" unicode="#" horiz-adv-x="709" 
d="M629 536l-10 -62c-1 -6 -5 -10 -11 -10h-98l-26 -159h95c7 0 11 -4 11 -9v-2l-10 -62c-1 -5 -5 -10 -11 -10h-98l-35 -212c-1 -5 -5 -10 -12 -10h-59c-6 0 -11 4 -11 10v2l34 210h-120l-35 -212c0 -5 -5 -10 -11 -10h-59c-7 0 -11 4 -11 10v2l34 210h-95
c-6 0 -11 4 -11 9v2l11 62c1 5 4 10 11 10h97l26 159h-95c-6 0 -11 4 -11 9v2l11 62c1 5 4 10 11 10h98l30 181c1 6 6 11 12 11h58c6 0 12 -3 12 -9v-2l-30 -181h121l30 181c1 6 5 11 12 11h58c6 0 11 -3 11 -9v-2l-29 -181h94c6 0 11 -4 11 -9v-2zM428 464h-121l-25 -159
h120z" />
    <glyph glyph-name="dollar" unicode="$" horiz-adv-x="671" 
d="M617 213c0 -151 -107 -209 -232 -221v-102c0 -9 -7 -16 -16 -16h-57c-10 0 -16 7 -16 16v99c-108 4 -187 29 -207 35c-9 3 -14 10 -14 17c0 2 0 3 1 5l12 50c1 6 10 10 15 10h2c22 -5 125 -33 233 -33c87 0 178 30 178 131c0 100 -86 113 -197 128
c-116 15 -259 43 -259 208c0 150 108 201 237 209v100c0 9 6 16 15 16h58c9 0 15 -7 15 -16v-100c95 -6 168 -28 188 -34c9 -3 13 -9 13 -17c0 -1 0 -3 -1 -5l-11 -49c-2 -6 -10 -10 -16 -10h-3c-21 5 -110 31 -215 31c-85 0 -179 -19 -179 -116s97 -115 191 -128
c117 -16 265 -26 265 -208z" />
    <glyph glyph-name="percent" unicode="%" horiz-adv-x="836" 
d="M348 561c0 -96 -17 -192 -165 -192c-147 0 -164 96 -164 192c0 95 17 191 164 191c148 0 165 -96 165 -191zM817 178c0 -95 -17 -191 -164 -191s-164 96 -164 191c0 96 17 192 164 192s164 -96 164 -192zM685 700l-479 -700c-2 -2 -5 -3 -8 -3c-2 0 -3 0 -5 1l-39 26
c-3 2 -4 5 -4 8c0 2 0 4 1 5l480 700c1 3 4 4 7 4c2 0 4 -1 5 -2l40 -26c2 -2 4 -5 4 -7s-1 -4 -2 -6zM741 178c0 82 -10 129 -88 129s-88 -47 -88 -129c0 -81 10 -129 88 -129s88 48 88 129zM271 561c0 81 -10 129 -88 129s-87 -48 -87 -129c0 -82 9 -129 87 -129
s88 47 88 129z" />
    <glyph glyph-name="ampersand" unicode="&#x26;" horiz-adv-x="737" 
d="M720 20v-2c0 -6 -4 -11 -9 -12c-20 -7 -64 -19 -123 -19c-102 0 -152 43 -152 143v217c-2 -5 -3 -6 -10 -7c-59 -6 -120 -7 -167 -19c-60 -16 -102 -49 -102 -120c0 -95 85 -129 172 -129c33 0 47 4 64 6h5c7 0 13 -2 14 -10l8 -50c1 -3 1 -5 1 -7c0 -8 -3 -12 -11 -14
c-8 -3 -39 -10 -88 -10c-131 0 -267 49 -267 207c0 162 138 169 161 175v25c-33 8 -147 27 -147 166c0 128 98 192 253 192c47 0 74 -5 101 -11c8 -2 11 -6 11 -13c0 -2 0 -5 -1 -8l-8 -51c-1 -8 -7 -10 -14 -10c-1 0 -3 0 -5 1c-18 2 -40 6 -69 6c-95 0 -167 -25 -167 -118
c0 -55 34 -87 86 -104c46 -15 107 -19 170 -24c8 -1 8 -2 10 -7v175c0 9 5 13 14 15l70 14c1 1 2 1 3 1c8 0 11 -7 11 -14v-180l148 -10c9 0 15 -6 15 -15v-40c0 -9 -6 -14 -15 -15l-148 -10v-205c0 -53 24 -66 76 -66c30 0 66 7 86 12h3c5 0 10 -3 11 -10z" />
    <glyph glyph-name="quotesingle" unicode="'" horiz-adv-x="187" 
d="M139 728l-14 -243c0 -6 -5 -10 -11 -10h-56c-6 0 -11 4 -11 10v243c0 6 5 11 11 11h71c5 0 11 -4 11 -10z" />
    <glyph glyph-name="parenleft" unicode="(" horiz-adv-x="302" 
d="M258 766v-4c-76 -121 -102 -283 -102 -426c0 -144 26 -305 102 -427c1 -1 1 -3 1 -5c0 -4 -1 -7 -3 -9l-46 -37c-3 -2 -5 -3 -8 -3c-4 0 -8 3 -14 9c-4 6 -10 11 -15 19c-73 115 -112 283 -112 453c0 177 43 353 122 468c6 9 11 14 16 14c3 0 6 -1 9 -4
c1 0 36 -31 36 -31c2 -2 14 -13 14 -17z" />
    <glyph glyph-name="parenright" unicode=")" horiz-adv-x="302" 
d="M241 336c0 -178 -43 -353 -122 -469c-6 -8 -11 -13 -16 -13c-3 0 -6 1 -9 3c-1 0 -36 31 -36 31c-2 2 -14 13 -14 17v4c76 122 102 283 102 427c0 143 -26 305 -102 426c-1 2 -1 4 -1 6c0 3 1 7 3 8l43 35s4 3 5 3c3 2 6 3 9 3c6 0 10 -4 16 -13
c79 -115 122 -291 122 -468z" />
    <glyph glyph-name="asterisk" unicode="*" horiz-adv-x="704" 
d="M560 528c0 -7 -5 -11 -11 -11l-148 8l97 -111c2 -2 3 -5 3 -7c0 -4 -1 -7 -4 -9l-48 -36c-2 -1 -4 -2 -6 -2c-4 0 -8 3 -9 5l-81 124l-81 -124c-1 -2 -5 -5 -9 -5c-2 0 -4 1 -6 2l-48 36c-3 2 -4 5 -4 8s1 6 3 8l95 111l-147 -8h-1c-6 0 -11 4 -11 11v59c0 6 4 11 11 11
h1l146 -10l-95 110c-2 3 -3 5 -3 8s1 6 4 9l48 35c2 2 4 2 6 2c4 0 8 -2 9 -5l81 -124l81 124c1 3 5 5 9 5c2 0 4 0 6 -2l48 -35c3 -3 4 -6 4 -9s-1 -5 -3 -8l-95 -110l147 10c7 0 11 -5 11 -11v-59z" />
    <glyph glyph-name="plus" unicode="+" 
d="M536 300c0 -9 -6 -15 -16 -15h-183v-183c0 -10 -7 -16 -16 -16h-53c-9 0 -15 6 -15 16v183h-184c-10 0 -16 6 -16 15v50c0 9 6 15 16 15h184v185c0 9 6 15 15 15h53c9 0 15 -6 15 -16v-184h184c9 0 16 -6 16 -15v-50z" />
    <glyph glyph-name="comma" unicode="," horiz-adv-x="337" 
d="M229 99l-36 -198c-1 -10 -3 -13 -14 -13h-56c-7 0 -14 1 -14 10v2l15 198c1 10 3 13 14 13h77c7 0 14 -1 14 -9v-3z" />
    <glyph glyph-name="hyphen" unicode="-" horiz-adv-x="394" 
d="M345 249c0 -10 -7 -16 -16 -16h-263c-9 0 -17 6 -17 16v50c0 9 7 15 17 15h263c9 0 16 -6 16 -15v-50z" />
    <glyph glyph-name="period" unicode="." horiz-adv-x="337" 
d="M233 88v-73c0 -9 -7 -15 -16 -15h-96c-9 0 -16 6 -16 15v73c0 9 7 15 16 15h96c9 0 16 -6 16 -15z" />
    <glyph glyph-name="slash" unicode="/" horiz-adv-x="354" 
d="M327 769l-219 -816c-1 -4 -5 -7 -10 -7c0 0 -1 1 -2 1l-62 14c-4 1 -7 5 -7 9v3l219 816c1 4 5 6 10 6h2l62 -14c4 -1 7 -5 7 -10v-2z" />
    <glyph glyph-name="zero" unicode="0" horiz-adv-x="575" 
d="M528 262c0 -146 -27 -275 -240 -275c-214 0 -241 129 -241 275s27 275 241 275c213 0 240 -129 240 -275zM430 262c0 133 -15 206 -143 206s-142 -73 -142 -206c0 -134 15 -206 143 -206s142 72 142 206z" />
    <glyph glyph-name="one" unicode="1" horiz-adv-x="291" 
d="M222 15c0 -8 -7 -15 -16 -15h-61c-8 0 -16 7 -16 15v426l-108 7c-8 0 -9 3 -9 12v37c0 8 1 11 9 12l190 29h1c5 0 10 -5 10 -10v-513z" />
    <glyph glyph-name="two" unicode="2" horiz-adv-x="569" 
d="M519 66v-50c0 -9 -5 -16 -13 -16h-395c-7 0 -12 5 -12 14l-1 53v8c0 42 8 56 42 77c3 4 83 50 91 55c17 10 53 31 69 42c48 32 91 64 91 123c0 89 -68 91 -119 91c-71 0 -123 -23 -167 -39c-3 -1 -5 -1 -6 -1c-5 0 -8 3 -10 10l-8 42c-1 3 -1 6 -1 8c0 6 2 10 9 13
c26 13 109 42 201 42c124 0 201 -50 201 -166c0 -107 -76 -151 -160 -197l-146 -80v-17l321 4c8 0 13 -7 13 -16z" />
    <glyph glyph-name="three" unicode="3" horiz-adv-x="544" 
d="M497 5c0 -185 -162 -256 -403 -256h-17c-17 0 -18 10 -18 19v38c0 10 7 17 15 17h13c162 5 313 37 313 191c0 102 -84 130 -215 138c-9 0 -13 6 -13 16v38c0 11 7 14 14 16c89 23 194 35 194 140c0 91 -73 101 -127 101c-76 0 -138 -24 -181 -40c-3 -1 -5 -1 -7 -1
c-5 0 -8 3 -10 10l-8 42c-1 3 -1 6 -1 8c0 6 2 10 9 13c27 14 116 43 211 43c129 0 210 -52 210 -168c0 -131 -96 -152 -133 -162v-25c92 -11 154 -74 154 -178z" />
    <glyph glyph-name="four" unicode="4" horiz-adv-x="643" 
d="M596 63v-47c0 -9 -6 -16 -13 -16h-86v-189c0 -8 -6 -15 -14 -15h-65c-8 0 -14 7 -14 15v189h-344c-8 0 -13 7 -13 15v67c0 3 0 9 2 12l273 425c2 2 6 6 9 6h153c7 0 13 -7 13 -15v-431h86c7 0 13 -8 13 -16zM404 79v374h-29l-238 -374h267z" />
    <glyph glyph-name="five" unicode="5" horiz-adv-x="549" 
d="M502 21c0 -258 -261 -272 -400 -272h-1c-12 0 -18 0 -28 1c-5 1 -12 2 -12 13v44c0 14 7 16 15 16c124 3 329 9 329 194c0 98 -53 148 -152 148c-57 0 -130 -24 -158 -33c-2 -1 -4 -1 -7 -1s-6 1 -9 4s-9 10 -9 14l22 365c0 5 6 11 10 11h367c7 0 13 -7 13 -16v-49
c0 -9 -5 -16 -13 -16h-294l-12 -219s57 18 128 18c126 0 211 -76 211 -222z" />
    <glyph glyph-name="six" unicode="6" horiz-adv-x="571" 
d="M525 231c0 -175 -89 -244 -237 -244c-190 0 -241 116 -241 361c0 325 189 424 441 431h2c12 0 18 -5 18 -17v-41c0 -12 -4 -16 -16 -17c-135 -8 -320 -42 -345 -262c0 0 75 36 154 36c139 0 224 -76 224 -247zM426 230c0 120 -49 171 -135 171c-35 0 -77 -10 -110 -22
c-13 -5 -25 -16 -36 -28c-1 -23 -2 -48 -2 -73c0 -111 20 -220 146 -220c102 0 137 52 137 172z" />
    <glyph glyph-name="seven" unicode="7" horiz-adv-x="530" 
d="M493 448c0 -9 -1 -18 -6 -24c-147 -227 -213 -407 -276 -626c-1 -4 -7 -12 -14 -12h-70c-11 0 -14 8 -14 14v3c55 203 161 462 286 641h-365c-8 0 -13 8 -13 16v49c0 9 5 16 13 16h446c7 0 13 -8 13 -16v-61z" />
    <glyph glyph-name="eight" unicode="8" horiz-adv-x="583" 
d="M536 202c0 -145 -79 -215 -244 -215c-166 0 -245 70 -245 215c0 118 80 161 137 165v26c-15 4 -127 9 -127 159c0 157 118 200 234 200c117 0 235 -43 235 -200c0 -137 -94 -153 -127 -161v-25c65 -6 137 -52 137 -164zM438 200c0 115 -76 141 -147 141
c-72 0 -146 -26 -146 -141c0 -101 58 -143 147 -143c90 0 146 42 146 143zM429 548c0 113 -75 134 -137 134c-63 0 -138 -21 -138 -134c0 -94 44 -133 137 -133c94 0 138 39 138 133z" />
    <glyph glyph-name="nine" unicode="9" horiz-adv-x="570" 
d="M524 178c0 -326 -189 -424 -441 -431h-2c-12 0 -18 5 -18 17v40c0 13 5 17 16 18c136 7 320 41 346 262c0 0 -76 -36 -154 -36c-140 0 -224 76 -224 246c0 176 88 244 236 244c190 0 241 -116 241 -360zM427 190v22c0 187 -40 255 -145 255c-102 0 -137 -52 -137 -171
c0 -120 50 -171 136 -171c45 0 106 16 145 36c0 0 1 22 1 29z" />
    <glyph glyph-name="colon" unicode=":" horiz-adv-x="337" 
d="M231 436c0 -9 -6 -15 -15 -15h-94c-9 0 -15 6 -15 15v73c0 10 6 16 15 16h94c9 0 15 -6 15 -16v-73zM231 16c0 -10 -6 -16 -15 -16h-94c-9 0 -15 6 -15 16v72c0 10 6 16 15 16h94c9 0 15 -6 15 -16v-72z" />
    <glyph glyph-name="semicolon" unicode=";" horiz-adv-x="337" 
d="M225 99l-35 -198c-2 -10 -4 -13 -15 -13h-56c-7 0 -14 1 -14 10v2l15 198c1 10 3 13 15 13h76c7 0 14 -1 14 -9v-3zM232 436c0 -9 -6 -15 -15 -15h-93c-9 0 -16 6 -16 15v73c0 10 7 16 16 16h93c9 0 15 -6 15 -16v-73z" />
    <glyph glyph-name="less" unicode="&#x3c;" 
d="M532 111l-27 -55c-2 -4 -5 -6 -9 -6c-2 0 -4 1 -6 2l-427 223c-3 2 -6 7 -6 11v58c0 5 1 8 7 11l426 225c2 1 4 1 6 1c4 0 7 -1 9 -5l27 -55c1 -1 1 -3 1 -5c0 -3 -2 -7 -5 -8l-381 -192l381 -192c3 -1 5 -5 5 -9c0 -1 0 -3 -1 -4z" />
    <glyph glyph-name="equal" unicode="=" 
d="M515 375c0 -9 -8 -15 -17 -15h-407c-9 0 -16 6 -16 15v53c0 9 6 16 16 16h408c9 0 16 -7 16 -16v-53zM515 264v-52c0 -10 -8 -16 -17 -16h-407c-9 0 -16 6 -16 16v52c0 9 6 16 16 16h408c9 0 16 -7 16 -16z" />
    <glyph glyph-name="greater" unicode="&#x3e;" 
d="M532 286c0 -4 -2 -9 -6 -11l-426 -223c-2 -1 -4 -2 -6 -2c-4 0 -7 2 -9 6l-28 55c0 1 -1 3 -1 4c0 4 2 8 6 9l381 192l-381 192c-4 1 -6 5 -6 8c0 2 1 4 1 5l28 55c2 4 5 5 9 5c2 0 4 0 6 -1l426 -225c5 -3 6 -6 6 -11v-58z" />
    <glyph glyph-name="question" unicode="?" 
d="M520 577c0 -101 -82 -144 -110 -164c-41 -29 -106 -54 -106 -121c0 -33 2 -42 5 -64v-3c0 -9 -7 -11 -17 -11h-60c-12 0 -14 0 -17 13c-2 10 -7 36 -7 63c0 107 49 125 121 176c22 16 89 50 89 112c0 79 -80 91 -142 91c-77 0 -155 -22 -173 -26c-5 -1 -8 -2 -11 -2
c-5 0 -8 3 -10 12l-12 49c-1 2 -1 3 -1 5c0 5 2 10 12 13c14 6 109 32 202 32c136 0 237 -47 237 -175zM315 16c0 -10 -5 -16 -15 -16h-71c-10 0 -16 6 -16 16v113c0 10 6 16 16 16h71c10 0 15 -6 15 -16v-113z" />
    <glyph glyph-name="at" unicode="@" horiz-adv-x="894" 
d="M835 369c0 -36 -2 -69 -5 -99c-1 -7 -6 -14 -15 -14h-45c-9 0 -14 8 -14 15v1c3 29 5 61 5 96c0 112 -15 191 -62 241c-46 50 -124 73 -252 73c-127 0 -204 -22 -250 -70c-48 -51 -63 -130 -63 -243c0 -220 55 -312 313 -312c37 0 72 3 102 6h2c8 0 13 -8 13 -14v-42
c0 -8 -6 -13 -14 -14c-31 -3 -66 -6 -103 -6c-305 0 -388 123 -388 382c0 258 83 383 388 383c306 0 388 -125 388 -383zM626 244c0 -58 -14 -72 -71 -85c-24 -6 -62 -12 -104 -12c-72 0 -187 4 -187 135c0 53 14 82 40 99c26 18 64 23 97 29l145 23v31c0 26 -3 42 -25 51
c-15 6 -37 9 -68 9c-52 0 -97 -12 -143 -23h-6c-5 0 -9 2 -11 9l-8 38c0 1 -1 2 -1 3c0 8 7 12 11 13c25 9 94 26 168 26c54 0 93 -7 118 -21c40 -22 45 -60 45 -105v-220zM547 222v150l-131 -22c-41 -7 -70 -10 -70 -65c0 -71 57 -76 106 -76c33 0 67 4 95 13z" />
    <glyph glyph-name="A" unicode="A" horiz-adv-x="711" 
d="M698 19c1 -2 1 -5 1 -7c0 -7 -4 -12 -12 -12h-75c-6 0 -14 6 -16 11l-101 294h-281l-99 -296c-2 -5 -10 -9 -16 -9h-76c-7 0 -11 5 -11 12c0 2 1 5 2 7l253 707c2 7 12 13 18 13h146c5 0 15 -6 18 -13zM470 386l-96 275h-41l-94 -275h231z" />
    <glyph glyph-name="B" unicode="B" horiz-adv-x="723" 
d="M676 193c0 -134 -90 -193 -252 -193h-317c-9 0 -17 7 -17 16v707c0 9 8 16 17 16h330c153 0 216 -59 216 -181c0 -105 -54 -145 -131 -161v-29c99 -11 154 -58 154 -175zM574 204c0 90 -35 130 -152 133l-232 6v-262h236c114 0 148 53 148 123zM552 541
c0 79 -37 117 -121 117h-241v-244l230 9c84 3 132 32 132 118z" />
    <glyph glyph-name="C" unicode="C" horiz-adv-x="661" 
d="M621 52c0 -1 1 -3 1 -6c0 -6 -2 -13 -16 -17c-43 -14 -116 -36 -230 -36c-248 0 -321 131 -321 378s73 377 321 377c114 0 187 -22 230 -36c14 -4 16 -11 16 -16c0 -3 -1 -6 -1 -7l-9 -45c-2 -9 -7 -12 -14 -12c-3 0 -7 0 -10 1c-46 12 -120 31 -203 31
c-184 0 -227 -89 -227 -292s43 -294 227 -294c83 0 157 17 203 29c3 1 7 2 10 2c7 0 12 -4 14 -13z" />
    <glyph glyph-name="D" unicode="D" horiz-adv-x="777" 
d="M721 370c0 -311 -117 -370 -340 -370h-274c-9 0 -17 7 -17 16v707c0 9 8 16 17 16h274c223 0 340 -59 340 -369zM620 372c0 256 -81 286 -252 286h-178v-577h177c172 1 253 35 253 291z" />
    <glyph glyph-name="E" unicode="E" horiz-adv-x="637" 
d="M580 16c0 -9 -7 -16 -16 -16h-457c-9 0 -17 7 -17 16v707c0 9 8 16 17 16h457c9 0 16 -7 16 -16v-52c0 -8 -7 -16 -16 -16h-374v-228h359c9 0 16 -7 16 -16v-53c0 -8 -7 -16 -16 -16h-359v-259h374c9 0 16 -7 16 -16v-51z" />
    <glyph glyph-name="F" unicode="F" horiz-adv-x="582" 
d="M558 670c0 -9 -7 -16 -16 -16h-352v-276h320c9 0 16 -7 16 -16v-55c0 -8 -7 -16 -16 -16h-320v-275c0 -9 -7 -16 -16 -16h-67c-9 0 -17 7 -17 16v707c0 9 8 16 17 16h435c9 0 16 -7 16 -16v-53z" />
    <glyph glyph-name="G" unicode="G" horiz-adv-x="744" 
d="M672 685l-10 -44c-2 -8 -7 -11 -14 -11c-3 0 -7 0 -11 1c-42 10 -122 37 -235 37c-194 0 -244 -83 -244 -300c0 -222 51 -300 260 -300c79 0 149 17 149 17v248l-131 15c-6 1 -10 5 -10 10v58c0 6 5 10 10 10h218c8 0 12 -5 12 -14v-301c0 -56 -5 -81 -50 -97
c-51 -18 -154 -27 -201 -27c-267 0 -360 98 -360 382c0 251 72 383 341 383c139 0 247 -35 261 -41c11 -4 16 -8 16 -17c0 -2 0 -5 -1 -9z" />
    <glyph glyph-name="H" unicode="H" horiz-adv-x="799" 
d="M709 15c0 -8 -7 -15 -16 -15h-68c-8 0 -16 7 -16 15v324h-419v-324c0 -8 -7 -15 -16 -15h-67c-9 0 -17 7 -17 15v712c0 9 6 12 13 13l74 12h2c8 0 11 -7 11 -13v-314h419v302c0 9 5 12 13 13l74 12h2c8 0 11 -7 11 -13v-724z" />
    <glyph glyph-name="I" unicode="I" horiz-adv-x="281" 
d="M190 15c0 -8 -7 -15 -16 -15h-67c-9 0 -17 7 -17 15v712c0 9 6 12 13 13l74 12h2c8 0 11 -7 11 -13v-724z" />
    <glyph glyph-name="J" unicode="J" horiz-adv-x="285" 
d="M196 -40c0 -114 -64 -153 -173 -153c-48 0 -57 2 -71 4c-6 0 -17 1 -17 14v39c0 15 7 16 13 16h1c4 0 29 1 49 2c65 2 98 11 98 81v764c0 9 5 12 13 13l73 12h3c8 0 11 -7 11 -13v-779z" />
    <glyph glyph-name="K" unicode="K" horiz-adv-x="651" 
d="M644 16c1 -1 2 -3 2 -5c0 -6 -5 -11 -10 -11h-107c-4 0 -11 4 -13 6l-287 327h-39v-318c0 -8 -7 -15 -16 -15h-67c-9 0 -17 7 -17 15v708c0 9 8 16 17 16h67c9 0 16 -7 16 -16v-304h39l274 314c3 2 9 6 13 6l95 -2c5 0 10 -6 10 -11c0 -2 -1 -4 -2 -5l-307 -341z" />
    <glyph glyph-name="L" unicode="L" horiz-adv-x="581" 
d="M565 16c0 -9 -7 -16 -16 -16h-442c-9 0 -17 7 -17 15v712c0 9 6 12 13 13l74 12h2c8 0 11 -7 11 -13v-652h359c9 0 16 -7 16 -16v-55z" />
    <glyph glyph-name="M" unicode="M" horiz-adv-x="997" 
d="M924 16v-1c0 -9 -8 -15 -17 -15h-66c-10 0 -16 7 -17 16l-56 644h-35l-172 -503c-3 -8 -10 -16 -20 -16h-97c-9 0 -16 8 -19 16l-165 503h-36l-55 -644c-1 -9 -8 -16 -17 -16h-62c-8 0 -16 7 -16 15v1l58 707c1 9 8 16 17 16h174c10 0 17 -8 20 -16l152 -493h5l155 493
c3 8 11 16 20 16h172c9 0 16 -7 16 -16z" />
    <glyph glyph-name="N" unicode="N" horiz-adv-x="835" 
d="M745 15c0 -8 -7 -15 -16 -15h-148c-9 0 -15 8 -19 16l-339 643h-35l2 -644c0 -8 -7 -15 -16 -15h-67c-9 0 -17 7 -17 15v709c0 8 8 15 17 15h174c9 0 15 -8 19 -16l338 -652h9l-1 654c0 10 6 14 15 14h69c11 0 15 -5 15 -14v-710z" />
    <glyph glyph-name="O" unicode="O" horiz-adv-x="781" 
d="M725 370c0 -224 -52 -383 -335 -383s-335 159 -335 383c0 223 52 382 335 382s335 -159 335 -382zM622 370c0 185 -20 299 -232 299s-231 -115 -231 -300c0 -184 19 -299 231 -299s232 115 232 300z" />
    <glyph glyph-name="P" unicode="P" horiz-adv-x="700" 
d="M662 519c0 -62 -10 -125 -54 -169c-52 -53 -140 -59 -215 -59h-35l-168 2v-278c0 -8 -7 -15 -16 -15h-67c-9 0 -17 7 -17 15v708c0 9 8 16 17 16h321c72 0 139 -10 183 -55c32 -34 51 -86 51 -165zM560 518c0 54 -13 87 -34 108c-29 27 -73 32 -126 32h-210v-293l161 4
c75 3 136 4 172 36c24 21 37 55 37 113z" />
    <glyph glyph-name="Q" unicode="Q" horiz-adv-x="781" 
d="M725 370c0 -213 -45 -368 -293 -382l20 -91h169c9 0 16 -7 16 -16v-57c0 -9 -7 -16 -16 -16h-99c-111 0 -143 43 -171 137l-13 44c-237 19 -283 172 -283 381c0 223 52 382 335 382s335 -159 335 -382zM622 370c0 185 -20 299 -232 299s-231 -115 -231 -300
c0 -184 19 -299 231 -299s232 115 232 300z" />
    <glyph glyph-name="R" unicode="R" horiz-adv-x="739" 
d="M678 16c0 -7 -6 -16 -14 -16h-70c-11 0 -16 4 -17 14l-9 153c-6 90 -59 128 -172 131l-206 5v-288c0 -8 -7 -15 -16 -15h-67c-9 0 -17 7 -17 15v708c0 9 8 16 17 16h324c147 0 233 -53 233 -205c0 -105 -39 -164 -159 -179v-26c79 -8 158 -20 166 -175zM562 519
c0 92 -34 139 -130 139h-242v-282l200 7c96 3 172 21 172 136z" />
    <glyph glyph-name="S" unicode="S" horiz-adv-x="664" 
d="M609 212c0 -176 -146 -223 -291 -223c-121 0 -215 29 -236 35c-9 3 -13 10 -13 17v5l12 49c1 6 10 10 16 10h2c21 -4 123 -32 229 -32c88 0 179 29 179 132c0 99 -83 112 -192 126c-114 16 -255 42 -255 210s136 209 277 209c117 0 209 -28 231 -35c10 -2 14 -9 14 -17
v-4l-12 -50c-1 -5 -10 -10 -15 -10h-2c-27 6 -112 31 -216 31c-82 0 -178 -18 -178 -116c0 -97 97 -115 192 -128c118 -16 258 -27 258 -209z" />
    <glyph glyph-name="T" unicode="T" horiz-adv-x="620" 
d="M616 671c0 -8 -7 -16 -16 -16h-240v-640c0 -8 -7 -15 -16 -15h-67c-9 0 -17 7 -17 15v640h-240c-9 0 -16 8 -15 16v52c0 9 6 16 15 16h580c9 0 16 -7 16 -16v-52z" />
    <glyph glyph-name="U" unicode="U" horiz-adv-x="760" 
d="M680 268c0 -152 -43 -281 -300 -281c-228 0 -300 100 -300 276v464c0 9 6 12 13 13l74 12h2c8 0 11 -7 11 -13v-483c0 -118 36 -186 201 -186c136 0 199 48 199 170v487c0 9 5 12 13 13l74 12h2c8 0 11 -7 11 -13v-471z" />
    <glyph glyph-name="V" unicode="V" horiz-adv-x="691" 
d="M675 722l-232 -706c-3 -9 -10 -16 -19 -16h-148c-8 0 -16 7 -18 16l-242 705c-1 2 -1 3 -1 5c0 7 5 13 11 13h79c8 0 15 -3 17 -11l210 -649h37l200 649c2 8 9 11 17 11h79c6 0 11 -6 11 -13c0 -1 0 -3 -1 -4z" />
    <glyph glyph-name="W" unicode="W" horiz-adv-x="1022" 
d="M991 722l-145 -706c-2 -9 -10 -16 -19 -16h-153c-9 0 -17 7 -19 16l-146 583l-146 -583c-2 -9 -10 -16 -19 -16h-149c-9 0 -17 7 -19 16l-145 705c-1 1 -1 3 -1 4c0 7 5 14 11 14h78c8 0 16 -2 17 -11l116 -647h35l149 582c2 9 10 16 19 16h112c9 0 17 -7 19 -16
l149 -582h35l117 647c1 9 9 11 17 11h77c6 0 11 -6 11 -14c0 -1 0 -2 -1 -3z" />
    <glyph glyph-name="X" unicode="X" horiz-adv-x="678" 
d="M673 17c1 -1 2 -3 2 -5c0 -6 -5 -12 -12 -12h-86c-6 0 -12 4 -15 8l-221 329l-226 -329c-2 -4 -8 -8 -14 -8h-87c-7 0 -11 7 -11 12c0 2 1 4 1 5l263 370l-235 334c-1 1 -1 3 -1 5c0 7 6 13 12 13h86c8 0 13 -4 18 -11l196 -292l193 293c5 7 10 10 17 10h83
c7 0 12 -7 12 -13c0 -2 -1 -3 -2 -5l-228 -333z" />
    <glyph glyph-name="Y" unicode="Y" horiz-adv-x="637" 
d="M642 721l-274 -420v-286c0 -8 -7 -15 -16 -15h-67c-9 0 -16 7 -16 15v287l-273 419c-1 2 -2 3 -2 5c0 7 6 13 12 13h85c8 0 13 -3 17 -11l214 -342l210 343c4 7 8 10 16 10h84c7 0 12 -7 12 -13c0 -2 -1 -3 -2 -5z" />
    <glyph glyph-name="Z" unicode="Z" horiz-adv-x="644" 
d="M603 16c0 -9 -6 -16 -15 -16h-529c-9 0 -15 7 -15 16v50c0 18 4 19 11 29l416 561h-415c-9 0 -16 7 -15 16v51c0 9 6 16 15 16h522c8 0 15 -7 15 -16v-57c0 -11 -2 -15 -8 -22l-422 -560h425c9 0 15 -7 15 -16v-52z" />
    <glyph glyph-name="bracketleft" unicode="[" horiz-adv-x="311" 
d="M249 -91l-20 -49c-1 -4 -4 -7 -8 -7c-1 0 -2 0 -3 1l-134 40c-5 1 -10 9 -10 15v853c0 6 5 14 10 15l133 40c1 0 3 1 4 1c4 0 7 -3 8 -7l20 -48c1 -1 1 -2 1 -4c0 -4 -2 -7 -6 -9l-81 -36v-757l82 -36c3 -2 5 -5 5 -8c0 -1 0 -3 -1 -4z" />
    <glyph glyph-name="backslash" unicode="\" horiz-adv-x="284" 
d="M335 -83c0 -1 1 -3 1 -4c0 -4 -3 -8 -7 -10l-61 -20c-1 -1 -2 -1 -3 -1c-5 0 -8 3 -10 7l-306 890v4c0 4 2 8 6 9l62 21c1 0 2 1 3 1c4 0 8 -3 9 -7z" />
    <glyph glyph-name="bracketright" unicode="]" horiz-adv-x="311" 
d="M236 -91c0 -6 -4 -14 -10 -15l-133 -40c-2 -1 -3 -1 -4 -1c-3 0 -6 3 -8 7l-20 49c0 1 -1 3 -1 4c0 3 2 6 6 8l82 36v757l-81 36c-4 2 -6 5 -6 9v4l20 48c2 4 5 7 9 7c1 0 2 -1 3 -1l133 -40c6 -1 10 -9 10 -15v-853z" />
    <glyph glyph-name="asciicircum" unicode="^" 
d="M546 325c1 -3 1 -5 1 -7c0 -3 -1 -7 -5 -9l-53 -25c-1 0 -3 -1 -5 -1c-4 0 -8 3 -9 6l-181 364l-179 -364c-2 -3 -6 -6 -10 -6c-2 0 -3 1 -5 1l-52 25c-4 2 -6 6 -6 9c0 2 1 4 2 7l208 407c2 4 8 7 12 7h62c4 0 9 -3 11 -7z" />
    <glyph glyph-name="underscore" unicode="_" horiz-adv-x="508" 
d="M508 -125h-508v53h508v-53z" />
    <glyph glyph-name="grave" unicode="`" horiz-adv-x="337" 
d="M263 639l-33 -41c-2 -3 -5 -4 -8 -4c-2 0 -4 1 -5 2l-141 100c-2 2 -3 4 -3 7c0 2 0 4 1 6l35 43c2 3 5 4 8 4c2 0 3 0 5 -1l139 -103c2 -2 4 -5 4 -7s-1 -4 -2 -6z" />
    <glyph glyph-name="a" unicode="a" horiz-adv-x="557" 
d="M493 104c0 -71 -17 -87 -86 -103c-30 -7 -78 -14 -132 -14c-91 0 -232 5 -232 167c0 132 76 140 170 156l188 31v44c0 31 -2 55 -35 68c-18 7 -46 10 -88 10c-75 0 -143 -19 -181 -28c-2 -1 -5 -1 -7 -1c-4 0 -9 2 -10 8l-10 49c-1 1 -1 2 -1 3c0 7 7 11 11 12
c31 11 117 32 211 32c72 0 118 -10 148 -26c52 -29 54 -78 54 -129v-279zM401 73v198l-170 -28c-46 -7 -92 -11 -92 -86c0 -95 77 -101 138 -101c43 0 87 5 124 17z" />
    <glyph glyph-name="b" unicode="b" horiz-adv-x="575" 
d="M532 265c0 -194 -52 -278 -238 -278c-72 0 -137 12 -172 23c-50 17 -53 42 -53 81v632c0 9 5 13 14 14l65 15h3c8 0 11 -6 11 -14v-170l-10 -58s93 28 167 28c164 0 213 -82 213 -273zM436 263c0 158 -26 203 -134 203c-58 0 -140 -22 -140 -22v-370s52 -17 129 -17
c109 0 145 49 145 206z" />
    <glyph glyph-name="c" unicode="c" horiz-adv-x="483" 
d="M449 33c1 -2 1 -4 1 -6c0 -8 -6 -11 -10 -13c-25 -12 -96 -26 -158 -26c-189 0 -239 88 -239 275c0 186 50 275 239 275c62 0 133 -15 158 -26c4 -2 10 -5 10 -14c0 -1 0 -3 -1 -5l-8 -39c-1 -8 -6 -11 -12 -11h-6c-22 6 -79 23 -131 23c-117 0 -153 -50 -153 -203
s36 -203 153 -203c52 0 109 14 131 20c2 1 4 1 6 1c6 0 10 -3 12 -11z" />
    <glyph glyph-name="d" unicode="d" horiz-adv-x="575" 
d="M506 86c0 -35 -1 -64 -63 -79c-35 -8 -80 -20 -156 -20c-195 0 -244 83 -244 275c0 188 52 276 231 276c68 0 120 -12 149 -19l-10 58v146c0 9 6 13 14 14l64 15h4c8 0 11 -6 11 -14v-652zM414 75v376s-60 16 -126 16c-104 0 -149 -31 -149 -204c0 -185 53 -205 150 -205
c69 0 125 17 125 17z" />
    <glyph glyph-name="e" unicode="e" horiz-adv-x="562" 
d="M513 273v-49c0 -7 -7 -15 -14 -15h-360c0 -53 11 -83 34 -108c28 -32 74 -43 140 -43c62 0 102 13 145 25c2 1 4 1 6 1c5 0 8 -3 11 -10l11 -41c1 -1 1 -3 1 -4c0 -6 -4 -10 -11 -12c-39 -16 -105 -30 -174 -30c-196 0 -259 88 -259 275c0 173 39 276 236 276
c104 0 165 -31 199 -85c28 -46 35 -108 35 -180zM418 280c-1 36 -3 71 -12 106c-16 62 -53 81 -128 81c-77 0 -113 -20 -129 -81c-9 -34 -10 -71 -11 -107z" />
    <glyph glyph-name="f" unicode="f" horiz-adv-x="364" 
d="M385 722l-6 -41c-1 -8 -5 -12 -13 -12c-1 0 -1 1 -1 1c-19 3 -55 10 -92 10c-26 0 -46 -3 -60 -14c-12 -9 -19 -25 -19 -51v-90h145c8 0 14 -6 14 -15v-43c0 -9 -6 -14 -14 -14h-145v-438c0 -9 -6 -15 -15 -15h-62c-9 0 -16 6 -16 15v438h-77c-9 0 -15 5 -15 14v43
c0 9 6 15 15 15h77v85c0 98 49 142 151 142c56 0 99 -10 120 -15c8 -2 13 -7 13 -14v-1z" />
    <glyph glyph-name="g" unicode="g" horiz-adv-x="581" 
d="M578 483c1 -3 2 -4 2 -6c0 -1 -1 -3 -6 -6c-21 -16 -46 -22 -70 -22c-16 0 -18 2 -40 6c3 -3 41 -37 41 -104c0 -138 -88 -179 -219 -179h-71c-49 0 -61 -24 -61 -50c0 -41 28 -51 73 -51h141c95 0 169 -27 169 -121c0 -125 -103 -168 -247 -168c-167 0 -245 33 -245 133
c0 81 57 94 103 104v12c-45 10 -85 14 -85 86c0 62 36 76 108 89c-44 13 -112 30 -112 147c0 139 91 185 224 185c62 0 87 -10 126 -20c10 -3 23 -5 37 -5c15 0 32 3 46 7c19 5 38 14 53 21c3 2 5 3 7 3c3 0 5 -1 7 -6zM415 355c0 88 -48 119 -132 119
c-83 0 -131 -31 -131 -119c0 -87 48 -117 131 -117c84 0 132 30 132 117zM445 -65c0 56 -48 62 -92 62h-123c-48 0 -93 -14 -93 -73c0 -65 65 -75 155 -75c62 0 153 10 153 86z" />
    <glyph glyph-name="h" unicode="h" horiz-adv-x="581" 
d="M516 15c0 -9 -5 -15 -14 -15h-62c-10 0 -16 6 -16 15v367c0 62 -23 85 -89 85c-86 0 -173 -25 -173 -25v-427c0 -9 -5 -15 -15 -15h-62c-10 0 -16 6 -16 15v708c0 9 5 13 14 14l65 15h3c8 0 11 -6 11 -14v-170l-10 -58c53 15 135 28 192 28c117 0 172 -36 172 -144v-379z
" />
    <glyph glyph-name="i" unicode="i" horiz-adv-x="260" 
d="M177 15c0 -9 -6 -15 -15 -15h-63c-9 0 -15 6 -15 15v493c0 9 6 15 15 15h63c9 0 15 -6 15 -15v-493zM176 626c0 -11 -6 -17 -16 -17h-59c-10 0 -17 7 -17 17v109c0 11 7 17 17 17h59c10 0 16 -6 16 -17v-109z" />
    <glyph glyph-name="j" unicode="j" horiz-adv-x="254" 
d="M174 -67c0 -108 -59 -143 -160 -143c-42 0 -46 2 -59 3c-6 0 -17 2 -17 15v37c0 15 8 17 14 17h1c2 0 18 -1 37 -1c62 0 91 11 91 76v571c0 9 7 15 16 15h62c9 0 15 -6 15 -15v-575zM174 626c0 -11 -7 -17 -17 -17h-58c-11 0 -18 7 -18 17v109c0 11 7 17 18 17h58
c10 0 17 -6 17 -17v-109z" />
    <glyph glyph-name="k" unicode="k" horiz-adv-x="525" 
d="M509 14c2 -1 2 -3 2 -5c0 -5 -4 -9 -10 -9h-95c-4 0 -7 2 -10 5l-195 223h-39v-213c0 -9 -5 -15 -15 -15h-62c-10 0 -16 6 -16 15v708c0 9 5 13 14 14l65 15h3c8 0 11 -7 11 -14v-442h39l191 224c3 3 6 5 9 5l85 -2c6 0 10 -5 10 -9c0 -2 -1 -4 -2 -5l-212 -241z" />
    <glyph glyph-name="l" unicode="l" horiz-adv-x="281" 
d="M262 17v-3c0 -8 -6 -11 -8 -11c-8 -4 -36 -13 -76 -13c-67 0 -109 35 -109 110v623c0 9 5 13 14 14l65 15h3c8 0 11 -6 11 -14v-634c0 -36 24 -42 44 -42c14 0 29 3 35 4c2 0 3 1 4 1c4 0 7 -2 8 -9z" />
    <glyph glyph-name="m" unicode="m" horiz-adv-x="936" 
d="M872 15c0 -9 -6 -15 -15 -15h-63c-9 0 -15 6 -15 15v366c0 64 -25 86 -90 86c-85 0 -172 -25 -172 -25v-427c0 -9 -5 -15 -14 -15h-63c-10 0 -16 6 -16 15v366c0 64 -24 86 -89 86c-85 0 -173 -25 -173 -25v-427c0 -9 -5 -15 -15 -15h-62c-10 0 -16 6 -16 15v419
c0 39 6 56 58 73s148 31 213 31c62 0 107 -13 134 -37c50 19 155 37 221 37c120 0 177 -36 177 -146v-377z" />
    <glyph glyph-name="n" unicode="n" horiz-adv-x="580" 
d="M516 15c0 -9 -5 -15 -15 -15h-62c-10 0 -16 6 -16 15v366c0 64 -24 86 -89 86c-85 0 -172 -25 -172 -25v-427c0 -9 -5 -15 -15 -15h-62c-10 0 -16 6 -16 15v419c0 39 6 56 58 73s148 31 212 31c120 0 177 -36 177 -146v-377z" />
    <glyph glyph-name="o" unicode="o" horiz-adv-x="562" 
d="M519 262c0 -151 -25 -275 -238 -275c-212 0 -238 124 -238 275c0 152 26 276 238 276c213 0 238 -124 238 -276zM423 262c0 126 -6 205 -142 205c-135 0 -141 -79 -141 -205c0 -125 6 -204 141 -204c136 0 142 79 142 204z" />
    <glyph glyph-name="p" unicode="p" horiz-adv-x="575" 
d="M532 262c0 -185 -49 -275 -232 -275c-58 0 -113 9 -149 19l11 -60v-127c0 -9 -5 -13 -13 -15l-65 -14h-3c-8 0 -12 6 -12 14v623c0 44 6 61 55 79c54 19 131 32 196 32c184 0 212 -114 212 -276zM436 261c0 183 -47 204 -138 204c-57 0 -136 -22 -136 -22v-370
s52 -16 129 -16c109 0 145 48 145 204z" />
    <glyph glyph-name="q" unicode="q" horiz-adv-x="575" 
d="M506 -181c0 -9 -5 -13 -13 -15l-65 -14h-4c-7 0 -11 6 -11 14v143l11 59c-32 -8 -74 -19 -146 -19c-193 0 -235 94 -235 274c0 198 58 277 238 277c71 0 124 -12 160 -21c62 -15 65 -44 65 -81v-617zM414 75v376s-59 16 -126 16c-104 0 -149 -33 -149 -205
c0 -185 53 -205 150 -205c69 0 125 18 125 18z" />
    <glyph glyph-name="r" unicode="r" horiz-adv-x="347" 
d="M340 473c0 -7 -2 -13 -11 -13c-64 0 -118 -5 -167 -18v-427c0 -9 -5 -15 -15 -15h-62c-2 0 -16 6 -16 15v421c0 42 12 55 50 71c47 19 132 31 184 31h16c2 0 4 -1 8 -1c4 -1 13 -3 13 -15v-49z" />
    <glyph glyph-name="s" unicode="s" horiz-adv-x="487" 
d="M448 151c0 -130 -99 -164 -216 -164c-87 0 -165 28 -179 33c-3 2 -8 4 -8 11v4l10 44c1 5 5 9 11 9c2 0 3 0 5 -1c10 -2 80 -27 159 -27c78 0 125 24 125 82c0 77 -58 75 -131 87c-52 8 -174 18 -174 151s117 158 206 158c85 0 150 -18 162 -21c8 -2 11 -7 11 -12v-2
l-8 -49c-1 -6 -6 -7 -10 -7h-2c-14 1 -85 18 -142 18c-67 0 -125 -18 -125 -78c0 -65 65 -71 125 -79c88 -12 181 -23 181 -157z" />
    <glyph glyph-name="t" unicode="t" horiz-adv-x="370" 
d="M353 21v-2c0 -6 -4 -10 -9 -12c-20 -7 -64 -19 -123 -19c-102 0 -152 43 -152 143v541c0 10 5 13 14 15l65 15h3c8 0 11 -6 11 -14v-163h162c8 0 14 -6 14 -15v-43c0 -8 -6 -14 -15 -14h-161v-327c0 -52 27 -66 79 -66c31 0 68 8 88 12c1 0 2 1 3 1c5 0 10 -4 11 -10z
" />
    <glyph glyph-name="u" unicode="u" horiz-adv-x="575" 
d="M511 192c0 -105 -24 -205 -223 -205c-173 0 -224 70 -224 204v318c0 9 6 13 14 15l65 14h3c8 0 11 -7 11 -14v-341c0 -87 31 -126 131 -126c119 0 131 58 131 128l-1 323c0 10 5 14 14 15l64 15h4c8 0 11 -6 11 -14v-332z" />
    <glyph glyph-name="v" unicode="v" horiz-adv-x="520" 
d="M500 508l-154 -492c-3 -10 -11 -16 -21 -16h-123c-10 0 -18 6 -21 16l-161 490c0 2 -1 3 -1 5c0 7 5 14 12 14h70c10 0 14 -6 16 -14l134 -446h26l120 446c2 8 8 14 18 14h72c8 0 14 -6 14 -13c0 -1 0 -2 -1 -4z" />
    <glyph glyph-name="w" unicode="w" horiz-adv-x="815" 
d="M794 508l-124 -492c-2 -10 -10 -16 -20 -16h-129c-10 0 -19 6 -21 16l-92 418h-2l-96 -418c-3 -10 -11 -16 -21 -16h-128c-10 0 -18 6 -20 16l-120 490v5c0 7 4 14 11 14h69c11 0 15 -5 17 -14l94 -446h27l94 423c2 10 10 16 20 16h110c10 0 18 -6 20 -16l93 -423h26
l94 446c2 8 6 14 17 14h68c8 0 13 -6 13 -14v-3z" />
    <glyph glyph-name="x" unicode="x" horiz-adv-x="520" 
d="M500 20c2 -2 3 -5 3 -8c0 -6 -4 -12 -10 -12h-79c-6 0 -12 4 -15 8l-139 209l-138 -209c-3 -4 -10 -8 -15 -8h-80c-6 0 -10 6 -10 12c0 3 0 6 2 8l182 251l-167 234c-1 2 -2 5 -2 8c0 6 4 12 9 12h79c11 0 16 -5 21 -13l121 -185l118 185c5 7 11 13 21 13h79
c5 0 9 -6 9 -13c0 -2 -1 -5 -2 -7l-170 -232z" />
    <glyph glyph-name="y" unicode="y" horiz-adv-x="513" 
d="M501 508l-181 -581c-29 -94 -60 -137 -171 -137c-39 0 -57 2 -75 5c-10 1 -12 7 -12 12v48c0 5 5 11 12 11h1c11 0 38 -1 58 -1c52 0 80 11 95 65l21 70h-47c-10 0 -17 6 -20 16l-162 492c0 1 -1 3 -1 4c0 7 6 13 14 13h69c10 0 13 -6 16 -14l133 -446h26l121 446
c2 8 7 14 18 14h72c7 0 13 -6 13 -13v-4z" />
    <glyph glyph-name="z" unicode="z" horiz-adv-x="489" 
d="M453 57v-42c0 -9 -6 -15 -15 -15h-377c-9 0 -16 6 -16 15v50c0 11 2 13 9 22l292 366h-295c-8 0 -15 6 -15 14v43c0 9 7 15 15 15h385c9 0 15 -6 15 -15v-51c0 -7 -1 -12 -8 -21l-301 -366h296c9 0 15 -6 15 -15z" />
    <glyph glyph-name="braceleft" unicode="{" horiz-adv-x="369" 
d="M307 -91l-19 -49c-2 -4 -5 -6 -8 -6h-4l-134 40c-5 2 -10 9 -10 15v275c0 74 -8 103 -67 112c-6 0 -11 5 -11 11v55c0 6 5 11 11 11c59 9 67 38 67 112v277c0 6 5 14 10 15l133 40c2 1 3 1 4 1c4 0 7 -2 9 -7l19 -47c1 -2 1 -3 1 -4c0 -4 -2 -8 -6 -10l-81 -36v-247
c0 -98 -61 -114 -76 -123v-20c15 -8 76 -24 76 -123v-244l82 -36c3 -1 5 -4 5 -8c0 -1 0 -3 -1 -4z" />
    <glyph glyph-name="bar" unicode="|" horiz-adv-x="243" 
d="M163 -146c0 -10 -6 -16 -15 -16h-53c-9 0 -16 8 -16 16v912c0 8 7 16 16 16h53c9 0 15 -6 15 -16v-912z" />
    <glyph glyph-name="braceright" unicode="}" horiz-adv-x="369" 
d="M314 307c0 -6 -4 -11 -11 -11c-58 -9 -67 -38 -67 -112v-275c0 -6 -4 -13 -10 -15l-133 -40h-4c-3 0 -6 2 -8 6l-20 49c0 1 -1 3 -1 4c0 4 2 7 6 8l82 36v244c0 99 61 115 76 123v20c-15 9 -76 25 -76 123v247l-81 36c-4 2 -6 6 -6 10v4l20 47c2 5 5 7 9 7c1 0 2 0 3 -1
l133 -40c6 -1 10 -9 10 -15v-277c0 -74 9 -103 67 -112c7 0 11 -5 11 -11v-55z" />
    <glyph glyph-name="asciitilde" unicode="~" 
d="M514 293c0 -4 -3 -7 -6 -10c-23 -19 -78 -59 -129 -59c-30 0 -57 13 -84 24c-31 14 -56 29 -83 29c-33 0 -62 -22 -89 -43c-2 -1 -7 -4 -10 -4c-5 0 -8 4 -10 8l-26 43c-1 3 -2 6 -2 9c0 4 3 7 6 10c23 19 78 59 129 59c30 0 58 -12 84 -24c31 -14 57 -29 83 -29
c33 0 63 22 89 43c2 2 7 4 10 4c6 0 8 -3 11 -8l25 -43c2 -2 2 -6 2 -9z" />
    <glyph glyph-name="Euro" horiz-adv-x="668" 
d="M644 49c0 -2 1 -4 1 -6c0 -6 -4 -12 -14 -16c-39 -16 -119 -36 -215 -36c-217 -1 -278 101 -293 287h-73c-9 0 -15 6 -15 14v42c0 9 6 15 15 15h517c6 0 9 -4 9 -9v-1l-7 -51c-1 -6 -6 -10 -12 -10h-331c10 -119 37 -203 189 -203c86 0 163 21 194 29c3 1 6 2 9 2
c6 0 12 -3 13 -10zM644 690l-13 -47c-1 -7 -7 -10 -13 -10c-3 0 -6 1 -9 2c-31 8 -108 29 -194 29c-152 0 -178 -88 -189 -186h350c5 0 9 -4 9 -9v-1l-7 -51c-1 -6 -6 -10 -12 -10h-516c-8 0 -14 6 -14 14v42c0 9 6 15 14 15h74c17 181 89 270 292 270c96 0 176 -20 215 -36
c10 -4 14 -10 14 -16c0 -2 -1 -4 -1 -6z" />
    <glyph glyph-name="quotesinglbase" horiz-adv-x="186" 
d="M139 153l-15 -219c0 -6 -5 -11 -11 -11h-55c-6 0 -11 5 -11 11v219c0 6 5 11 11 11h70c5 0 11 -4 11 -10v-1z" />
    <glyph glyph-name="florin" horiz-adv-x="555" 
d="M476 733l-9 -47c-1 -6 -6 -10 -10 -10h-1c-17 1 -35 4 -52 4c-76 0 -83 -28 -94 -93l-19 -110h127c6 0 11 -4 11 -9v-2l-11 -52c-1 -6 -5 -11 -11 -11h-129l-107 -598c-1 -6 -5 -10 -11 -10h-70c-6 0 -11 3 -11 9v2l107 597h-84c-6 0 -10 4 -10 9v2l10 52c1 6 5 11 11 11
h86l20 109c21 122 55 166 186 166c31 0 59 -5 61 -7c6 0 10 -5 10 -10v-2z" />
    <glyph glyph-name="quotedblbase" horiz-adv-x="335" 
d="M139 153l-15 -219c0 -6 -5 -11 -11 -11h-55c-6 0 -11 5 -11 11v219c0 6 5 11 11 11h70c5 0 11 -4 11 -10v-1zM288 153l-15 -219c0 -6 -5 -11 -11 -11h-55c-6 0 -11 5 -11 11v219c0 6 5 11 11 11h70c5 0 11 -4 11 -10v-1z" />
    <glyph glyph-name="ellipsis" unicode="&#x85;" horiz-adv-x="955" 
d="M255 77v-62c0 -9 -6 -15 -16 -15h-114c-10 0 -17 6 -17 15v62c0 9 7 16 17 16h114c10 0 16 -7 16 -16zM557 77v-62c0 -9 -6 -15 -16 -15h-114c-10 0 -17 6 -17 15v62c0 9 7 16 17 16h114c10 0 16 -7 16 -16zM859 77v-62c0 -9 -6 -15 -16 -15h-114c-10 0 -17 6 -17 15v62
c0 9 7 16 17 16h114c10 0 16 -7 16 -16z" />
    <glyph glyph-name="dagger" horiz-adv-x="697" 
d="M568 340v-47c0 -9 -6 -15 -15 -15h-165l10 -58v-401c0 -9 -5 -13 -14 -15l-70 -14h-4c-8 0 -11 6 -11 14v416l10 58h-164c-9 0 -15 6 -15 15v47c0 9 6 15 15 15h164l-10 58v310c0 9 5 13 14 14l70 15h4c8 0 11 -7 11 -14v-325l-10 -58h165c9 0 15 -6 15 -15z" />
    <glyph glyph-name="daggerdbl" horiz-adv-x="697" 
d="M568 116c0 -8 -7 -14 -15 -14h-165l10 -58v-225c0 -9 -5 -13 -14 -15l-70 -14h-4c-8 0 -12 6 -12 14v240l11 58h-165c-8 0 -15 6 -15 14v48c0 9 7 14 15 14h165l-11 59v68l11 59h-165c-9 0 -15 5 -15 14v48c0 8 7 14 15 14h165l-10 58v225c0 9 5 13 14 15l70 14h4
c8 0 11 -6 11 -14l1 -240l-11 -58h165c8 0 14 -6 14 -14v-48c0 -9 -6 -14 -14 -14h-165l10 -59v-68l-10 -59h165c8 0 15 -5 15 -14v-48z" />
    <glyph glyph-name="circumflex" horiz-adv-x="465" 
d="M390 640l-33 -39c-2 -3 -5 -4 -8 -4c-2 0 -3 1 -5 2l-111 87l-112 -87c-1 -1 -3 -2 -5 -2c-3 0 -6 1 -8 4l-32 39c-2 1 -2 3 -2 5c0 3 1 6 3 7l139 102h33l139 -102c2 -1 4 -4 4 -7c0 -2 -1 -4 -2 -5z" />
    <glyph glyph-name="perthousand" horiz-adv-x="1220" 
d="M348 561c0 -96 -17 -192 -165 -192c-147 0 -164 96 -164 192c0 95 17 191 164 191c148 0 165 -96 165 -191zM1201 178c0 -95 -17 -191 -164 -191s-164 96 -164 191c0 96 17 192 164 192s164 -96 164 -192zM817 178c0 -95 -17 -191 -164 -191s-164 96 -164 191
c0 96 17 192 164 192s164 -96 164 -192zM685 700l-479 -700c-2 -2 -5 -3 -8 -3c-2 0 -3 0 -5 1l-39 26c-3 2 -4 5 -4 8c0 2 0 4 1 5l480 700c1 3 4 4 7 4c2 0 4 -1 5 -2l40 -26c2 -2 4 -5 4 -7s-1 -4 -2 -6zM741 178c0 82 -10 129 -88 129s-88 -47 -88 -129
c0 -81 10 -129 88 -129s88 48 88 129zM1125 178c0 82 -10 129 -88 129s-88 -47 -88 -129c0 -81 10 -129 88 -129s88 48 88 129zM271 561c0 81 -10 129 -88 129s-87 -48 -87 -129c0 -82 9 -129 87 -129s88 47 88 129z" />
    <glyph glyph-name="Scaron" horiz-adv-x="664" 
d="M609 212c0 -176 -146 -223 -291 -223c-121 0 -215 29 -236 35c-9 3 -13 10 -13 17v5l12 49c1 6 10 10 16 10h2c21 -4 123 -32 229 -32c88 0 179 29 179 132c0 99 -83 112 -192 126c-114 16 -255 42 -255 210s136 209 277 209c117 0 209 -28 231 -35c10 -2 14 -9 14 -17
v-4l-12 -50c-1 -5 -10 -10 -15 -10h-2c-27 6 -112 31 -216 31c-82 0 -178 -18 -178 -116c0 -97 97 -115 192 -128c118 -16 258 -27 258 -209zM505 931c2 -2 2 -4 2 -6s-1 -5 -4 -7l-138 -101h-34l-138 101c-2 2 -4 5 -4 7s1 4 2 6l32 38c3 3 6 4 8 4s4 0 6 -2l111 -86
l112 86c1 2 3 2 5 2c3 0 6 -1 8 -4z" />
    <glyph glyph-name="guilsinglleft" horiz-adv-x="340" 
d="M285 495l-149 -206l149 -206c1 -1 1 -3 1 -5c0 -3 -2 -7 -5 -9l-45 -30c-1 -1 -3 -2 -5 -2c-3 0 -7 2 -10 5l-165 239c-2 2 -3 5 -3 8c0 2 1 5 2 7l166 240c3 3 7 5 11 5c1 0 3 -1 4 -1l45 -31c3 -2 5 -6 5 -9c0 -2 0 -4 -1 -5z" />
    <glyph glyph-name="OE" horiz-adv-x="1077" 
d="M1020 16c0 -9 -6 -16 -15 -16h-424c-9 0 -16 7 -16 16v45c-45 -43 -113 -74 -208 -74c-271 0 -302 193 -302 382c0 190 31 383 302 383c95 0 163 -32 208 -75v46c0 9 7 16 16 16h423c9 0 16 -7 16 -16v-52c0 -8 -7 -16 -16 -16h-344v-229h330c8 0 15 -7 15 -16v-52
c0 -9 -7 -16 -15 -16h-330v-259h345c9 0 15 -7 15 -16v-51zM560 369c0 188 -24 300 -202 300s-199 -112 -199 -300c0 -187 21 -299 200 -299c178 0 201 112 201 299z" />
    <glyph glyph-name="Zcaron" horiz-adv-x="644" 
d="M603 16c0 -9 -6 -16 -15 -16h-529c-9 0 -15 7 -15 16v50c0 18 4 19 11 29l416 561h-415c-9 0 -16 7 -15 16v51c0 9 6 16 15 16h522c8 0 15 -7 15 -16v-57c0 -11 -2 -15 -8 -22l-422 -560h425c9 0 15 -7 15 -16v-52zM476 931c1 -2 2 -4 2 -6s-2 -5 -4 -7l-139 -101h-33
l-139 101c-2 2 -3 5 -3 7s0 4 2 6l32 38c2 3 5 4 8 4c2 0 4 0 5 -2l112 -86l111 86c2 2 4 2 5 2c3 0 6 -1 8 -4z" />
    <glyph glyph-name="quoteleft" horiz-adv-x="229" 
d="M182 723l-32 -212c-1 -8 -8 -13 -16 -13h-74c-10 0 -14 5 -14 12c0 3 1 5 2 8l64 209c2 8 10 12 14 12h44c8 0 12 -5 12 -13v-3z" />
    <glyph glyph-name="quoteright" horiz-adv-x="229" 
d="M182 720l-64 -210c-3 -8 -11 -12 -15 -12h-44c-8 0 -12 6 -12 13v3l32 213c1 7 8 12 16 12h74c10 0 14 -5 14 -12c0 -2 -1 -5 -1 -7z" />
    <glyph glyph-name="quotedblleft" horiz-adv-x="395" 
d="M348 723l-32 -212c-1 -8 -8 -13 -16 -13h-74c-10 0 -14 5 -14 12c0 3 1 5 1 8l64 209c3 8 11 12 15 12h44c8 0 12 -5 12 -13v-3zM182 723l-32 -212c-1 -8 -8 -13 -16 -13h-74c-10 0 -14 5 -14 12c0 3 1 5 2 8l64 209c2 8 10 12 14 12h44c8 0 12 -5 12 -13v-3z" />
    <glyph glyph-name="quotedblright" horiz-adv-x="395" 
d="M182 720l-64 -210c-3 -8 -11 -12 -15 -12h-44c-8 0 -12 6 -12 13v3l32 213c1 7 8 12 16 12h74c10 0 14 -5 14 -12c0 -2 -1 -5 -1 -7zM348 720l-65 -210c-2 -8 -10 -12 -14 -12h-44c-8 0 -12 6 -12 13v3l32 213c1 7 8 12 16 12h74c10 0 14 -5 14 -12c0 -2 -1 -5 -1 -7z
" />
    <glyph glyph-name="bullet" horiz-adv-x="423" 
d="M344 256c0 -24 -19 -44 -43 -44h-178c-24 0 -44 20 -44 44v178c0 24 20 44 44 44h177c24 0 44 -20 44 -44v-178z" />
    <glyph glyph-name="endash" horiz-adv-x="476" 
d="M492 249c0 -10 -8 -16 -17 -16h-474c-9 0 -17 6 -17 16v50c0 9 7 15 17 15h474c10 0 17 -6 17 -15v-50z" />
    <glyph glyph-name="emdash" horiz-adv-x="1014" 
d="M1015 299v-50c0 -10 -8 -16 -17 -16h-982c-9 0 -17 6 -17 16v50c0 9 7 15 17 15h982c10 0 17 -6 17 -15z" />
    <glyph glyph-name="tilde" horiz-adv-x="489" 
d="M413 672c0 -4 -2 -6 -5 -9c-18 -15 -60 -47 -100 -47c-23 0 -44 10 -64 20c-23 10 -42 22 -62 22c-25 0 -48 -18 -68 -34c-2 -1 -5 -3 -8 -3c-4 0 -7 2 -9 6l-20 39c-1 2 -2 4 -2 6c0 4 3 7 6 9c18 15 60 47 100 47c23 0 44 -10 64 -19c22 -11 42 -23 62 -23
c25 0 48 18 68 34c2 2 5 3 8 3c4 0 7 -2 8 -6l21 -39c1 -1 1 -4 1 -6z" />
    <glyph glyph-name="trademark" horiz-adv-x="1015" 
d="M960 331v-2c0 -8 -7 -14 -16 -14h-47c-10 0 -15 6 -16 16l-20 336h-28l-77 -248c-2 -5 -5 -10 -11 -10h-88c-6 0 -8 5 -10 10l-74 248h-28l-20 -336c0 -10 -5 -16 -15 -16h-47c-8 0 -15 6 -15 15v1l25 393c1 9 6 15 15 15h136c6 0 9 -5 10 -10l68 -255h1l72 255
c1 5 4 10 10 10h134c9 0 15 -6 15 -15zM420 690c0 -9 -6 -15 -15 -15h-133v-344c0 -10 -6 -16 -16 -16h-51c-9 0 -15 6 -15 16v344h-133c-10 0 -16 5 -16 15v34c0 9 7 15 16 15h348c9 0 15 -6 15 -15v-34z" />
    <glyph glyph-name="scaron" horiz-adv-x="487" 
d="M448 151c0 -130 -99 -164 -216 -164c-87 0 -165 28 -179 33c-3 2 -8 4 -8 11v4l10 44c1 5 5 9 11 9c2 0 3 0 5 -1c10 -2 80 -27 159 -27c78 0 125 24 125 82c0 77 -58 75 -131 87c-52 8 -174 18 -174 151s117 158 206 158c85 0 150 -18 162 -21c8 -2 11 -7 11 -12v-2
l-8 -49c-1 -6 -6 -7 -10 -7h-2c-14 1 -85 18 -142 18c-67 0 -125 -18 -125 -78c0 -65 65 -71 125 -79c88 -12 181 -23 181 -157zM410 714c1 -1 2 -3 2 -5c0 -3 -1 -6 -4 -8l-138 -101h-34l-138 101c-3 2 -4 5 -4 8c0 2 1 4 2 5l32 38c3 3 6 5 8 5s4 -1 6 -2l111 -87l112 87
c1 1 3 2 5 2c3 0 5 -2 8 -5z" />
    <glyph glyph-name="guilsinglright" horiz-adv-x="340" 
d="M285 296c1 -2 2 -5 2 -7c0 -3 -1 -6 -2 -8l-166 -239c-2 -3 -7 -5 -10 -5c-2 0 -4 1 -5 2l-45 30c-3 2 -5 6 -5 9c0 2 0 4 1 5l149 206l-149 206c-1 1 -1 3 -1 5c0 3 2 7 5 9l45 31c1 0 3 1 5 1c3 0 8 -2 10 -5z" />
    <glyph glyph-name="oe" horiz-adv-x="936" 
d="M887 273v-49c0 -7 -7 -15 -15 -15h-359c0 -53 12 -83 34 -108c28 -32 74 -43 140 -43c62 0 102 13 145 25c2 1 4 1 6 1c5 0 8 -3 11 -10l11 -41c1 -1 1 -3 1 -4c0 -6 -4 -10 -11 -12c-39 -16 -105 -30 -174 -30c-108 0 -171 28 -205 72c-28 -41 -85 -72 -190 -72
c-212 0 -238 127 -238 275c0 149 26 276 238 276c102 0 157 -30 186 -69c29 41 84 69 186 69c104 0 165 -31 199 -85c28 -46 35 -108 35 -180zM423 262c0 122 -6 205 -142 205c-135 0 -141 -83 -141 -205c0 -121 6 -204 141 -204c136 0 142 83 142 204zM791 280
c-1 36 -2 72 -11 106c-17 62 -53 81 -128 81c-78 0 -114 -20 -129 -81c-9 -34 -10 -71 -11 -108z" />
    <glyph glyph-name="zcaron" horiz-adv-x="489" 
d="M453 57v-42c0 -9 -6 -15 -15 -15h-377c-9 0 -16 6 -16 15v50c0 11 2 13 9 22l292 366h-295c-8 0 -15 6 -15 14v43c0 9 7 15 15 15h385c9 0 15 -6 15 -15v-51c0 -7 -1 -12 -8 -21l-301 -366h296c9 0 15 -6 15 -15zM407 714c1 -1 2 -3 2 -5c0 -3 -1 -6 -4 -7l-138 -102h-34
l-138 102c-3 1 -4 4 -4 7c0 2 1 4 2 5l32 38c3 3 6 5 8 5s4 -1 6 -2l111 -87l112 87c1 1 3 2 5 2c3 0 5 -2 8 -5z" />
    <glyph glyph-name="Ydieresis" horiz-adv-x="637" 
d="M642 721l-274 -420v-286c0 -8 -7 -15 -16 -15h-67c-9 0 -16 7 -16 15v287l-273 419c-1 2 -2 3 -2 5c0 7 6 13 12 13h85c8 0 13 -3 17 -11l214 -342l210 343c4 7 8 10 16 10h84c7 0 12 -7 12 -13c0 -2 -1 -3 -2 -5zM469 913v-59c0 -6 -5 -11 -12 -11h-102
c-6 0 -11 5 -11 11v59c0 6 5 11 11 11h102c7 0 12 -5 12 -11zM270 913v-59c0 -6 -5 -11 -11 -11h-102c-6 0 -11 5 -11 11v59c0 6 5 11 11 11h102c6 0 11 -5 11 -11z" />
    <glyph glyph-name="nbspace" unicode="&#xa0;" horiz-adv-x="310" 
 />
    <glyph glyph-name="exclamdown" unicode="&#xa1;" horiz-adv-x="283" 
d="M195 -3c0 -5 -4 -10 -9 -10h-2l-77 16c-9 2 -14 6 -14 15l9 501c0 6 5 10 10 10h64c6 0 10 -4 10 -10zM195 609c0 -9 -5 -15 -15 -15h-71c-10 0 -16 6 -16 15v114c0 10 6 16 16 16h71c10 0 15 -6 15 -16v-114z" />
    <glyph glyph-name="cent" unicode="&#xa2;" horiz-adv-x="483" 
d="M449 33c1 -2 1 -4 1 -6c0 -8 -6 -11 -10 -13c-21 -10 -71 -21 -122 -25v-71c0 -10 -7 -16 -16 -16h-49c-9 0 -15 7 -15 15v73c-153 13 -195 102 -195 273s42 259 195 273v74c0 9 6 16 15 16h49c9 0 16 -7 16 -16v-73c51 -4 101 -16 122 -25c4 -2 10 -5 10 -14
c0 -1 0 -3 -1 -5l-8 -38c-2 -8 -6 -11 -12 -11c-2 0 -4 0 -6 1c-22 6 -79 21 -131 21c-117 0 -153 -50 -153 -203s36 -203 153 -203c52 0 109 14 131 20c2 1 4 1 6 1c6 0 10 -3 12 -11z" />
    <glyph glyph-name="sterling" unicode="&#xa3;" horiz-adv-x="669" 
d="M610 710l-12 -59c-1 -5 -5 -8 -10 -8h-2c-4 0 -99 24 -174 24c-76 0 -167 -15 -167 -121c0 -48 24 -143 28 -157h228c9 0 16 -7 16 -16v-50c0 -9 -7 -16 -16 -16h-212s10 -32 10 -81c0 -93 -58 -128 -79 -143l372 2c9 0 16 -7 16 -16v-53c0 -9 -7 -16 -16 -16h-519
c-9 0 -14 6 -14 14v59c0 8 1 12 15 15c69 12 125 60 125 143c0 69 -52 222 -52 308c0 159 100 213 256 213c99 0 192 -25 197 -26c6 -3 11 -6 11 -13c0 -1 -1 -2 -1 -3z" />
    <glyph glyph-name="currency" unicode="&#xa4;" horiz-adv-x="678" 
d="M544 192c2 -2 3 -4 3 -6c0 -3 -1 -6 -3 -8l-46 -48c-2 -2 -5 -4 -8 -4c-2 0 -4 0 -6 2l-47 44c-24 -13 -56 -22 -98 -22s-74 9 -98 22l-47 -44c-2 -2 -4 -2 -6 -2c-3 0 -6 2 -9 4l-45 48c-2 2 -3 5 -3 8c0 2 1 4 2 6l49 45c-13 30 -19 64 -19 99s6 69 19 99l-49 45
c-1 2 -2 4 -2 6c0 3 1 6 3 8l45 48c3 3 6 5 9 5c2 0 4 -1 6 -3l47 -44c24 13 56 22 98 22s74 -9 98 -22l47 44c2 2 4 3 6 3c3 0 6 -2 8 -5l46 -48c2 -2 3 -5 3 -8c0 -2 -1 -4 -3 -6l-48 -45c13 -30 18 -64 18 -99s-5 -69 -18 -99zM442 336c0 79 -21 122 -103 122
s-103 -43 -103 -122s21 -121 103 -121s103 42 103 121z" />
    <glyph glyph-name="yen" unicode="&#xa5;" horiz-adv-x="617" 
d="M622 721l-229 -367h160c9 0 15 -6 15 -14v-46c0 -9 -6 -15 -15 -15h-489c-9 0 -15 6 -15 15v46c0 8 6 14 15 14h160l-228 366c-1 2 -2 4 -2 6c0 6 6 13 13 13h83c8 0 14 -3 18 -11l204 -343l200 344c4 8 9 10 17 10h82c7 0 12 -7 12 -13c0 -2 0 -4 -1 -5zM530 164
c0 -9 -7 -15 -15 -15h-155v-134c0 -8 -7 -15 -16 -15h-67c-9 0 -16 7 -16 15v134h-157c-9 0 -15 6 -15 15v45c0 9 6 15 15 15h411c9 0 15 -6 15 -15v-45z" />
    <glyph glyph-name="brokenbar" unicode="&#xa6;" horiz-adv-x="268" 
d="M176 181v-340c0 -9 -6 -16 -15 -16h-53c-10 0 -16 7 -16 16v340c0 9 6 16 16 16h53c9 0 15 -7 15 -16zM176 659v-340c0 -9 -6 -16 -15 -16h-53c-10 0 -16 7 -16 16v340c0 9 6 16 16 16h53c9 0 15 -7 15 -16z" />
    <glyph glyph-name="section" unicode="&#xa7;" horiz-adv-x="712" 
d="M629 273c0 -99 -76 -136 -131 -150v-20c30 -11 102 -33 102 -136c0 -68 -30 -119 -80 -145c-45 -24 -91 -32 -180 -32c-95 0 -200 28 -216 35c-4 2 -9 4 -9 11v4l11 44c1 5 5 10 12 10c2 0 3 0 6 -1c11 -3 111 -31 197 -31c103 0 165 24 165 106c0 70 -55 84 -116 94
c-21 4 -45 6 -70 10c-138 19 -237 39 -237 189c0 100 76 136 131 151v20c-30 11 -102 33 -102 135c0 69 30 126 80 153c44 23 89 32 179 32c84 0 164 -17 184 -23c7 -3 11 -7 11 -12c0 -1 0 -1 -1 -2l-8 -49c-1 -7 -5 -9 -9 -9h-3c-18 3 -112 23 -175 23
c-104 0 -164 -30 -164 -113c0 -70 53 -84 114 -94c22 -4 45 -6 71 -10c139 -19 238 -39 238 -190zM299 162c18 -3 71 -9 71 -9c89 1 164 26 164 116c0 80 -62 94 -121 103c-18 3 -71 9 -71 9c-89 0 -164 -26 -164 -115c0 -80 62 -95 121 -104z" />
    <glyph glyph-name="dieresis" unicode="&#xa8;" horiz-adv-x="471" 
d="M199 728v-59c0 -5 -5 -10 -11 -10h-102c-7 0 -12 5 -12 10v59c0 6 5 11 12 11h102c6 0 11 -5 11 -11zM397 728v-59c0 -5 -5 -10 -11 -10h-102c-6 0 -11 5 -11 10v59c0 6 5 11 11 11h102c6 0 11 -5 11 -11z" />
    <glyph glyph-name="copyright" unicode="&#xa9;" horiz-adv-x="894" 
d="M835 368c0 -258 -82 -381 -388 -381c-305 0 -388 123 -388 381c0 259 83 384 388 384c306 0 388 -125 388 -384zM761 369c0 117 -17 198 -70 248c-47 44 -123 65 -244 65c-122 0 -199 -21 -245 -66c-52 -50 -68 -131 -68 -248s16 -197 68 -248c46 -44 122 -63 245 -63
c121 0 197 19 244 63c53 50 70 131 70 249zM597 558l-6 -30c-2 -8 -7 -13 -14 -13c-2 0 -4 1 -6 1c-32 9 -69 19 -106 19c-94 0 -122 -38 -122 -162s28 -162 122 -162c42 0 89 13 106 17c2 1 4 1 6 1c7 0 12 -4 14 -12l6 -29c1 -2 1 -3 1 -5c0 -4 -2 -7 -4 -10
c-3 -2 -5 -4 -8 -5c-25 -11 -83 -21 -127 -21c-158 0 -198 76 -198 226s40 226 198 226c31 0 106 -9 131 -23c6 -4 8 -8 8 -13c0 -2 0 -4 -1 -5z" />
    <glyph glyph-name="ordfeminine" unicode="&#xaa;" horiz-adv-x="441" 
d="M353 499c0 -44 -11 -56 -56 -66c-19 -5 -49 -9 -82 -9c-52 0 -148 1 -148 103c0 78 55 87 113 96l108 17v16c0 17 -1 29 -19 36c-10 4 -26 6 -51 6c-38 0 -76 -8 -112 -16c-3 -1 -5 -1 -7 -1c-4 0 -7 1 -8 7l-8 32c0 1 -1 2 -1 3c0 7 8 9 11 10c24 8 75 19 132 19
c58 0 94 -10 112 -30c15 -19 16 -42 16 -64v-159zM365 354v-26c0 -9 -7 -15 -16 -15h-264c-9 0 -15 6 -15 15v26c0 9 6 14 15 14h265c9 0 15 -5 15 -14zM289 484v108l-103 -17c-26 -4 -52 -9 -52 -46c0 -51 42 -55 81 -55c24 0 50 3 74 10z" />
    <glyph glyph-name="guillemotleft" unicode="&#xab;" horiz-adv-x="531" 
d="M283 495l-148 -206l148 -206c1 -1 2 -3 2 -5c0 -3 -2 -7 -5 -9l-44 -30c-1 -1 -3 -2 -5 -2c-3 0 -7 2 -10 5l-165 239c-2 2 -3 5 -3 8c0 2 1 5 2 7l166 240c3 3 7 5 11 5c1 0 3 0 4 -1l44 -31c3 -2 5 -6 5 -9c0 -2 0 -4 -2 -5zM476 495l-149 -206l149 -206
c1 -1 2 -3 2 -5c0 -3 -2 -7 -5 -9l-44 -30c-1 -1 -3 -2 -5 -2c-4 0 -8 2 -10 5l-166 239c-1 2 -2 5 -2 8c0 2 1 5 2 7l166 240c2 3 7 5 10 5c2 0 4 0 5 -1l44 -31c3 -2 5 -6 5 -9c0 -2 -1 -4 -2 -5z" />
    <glyph glyph-name="logicalnot" unicode="&#xac;" 
d="M535 376v-219c0 -9 -6 -16 -15 -16h-52c-10 0 -17 6 -17 16v153h-381c-8 0 -16 6 -16 15v50c0 10 7 16 16 16h450c9 0 15 -7 15 -15z" />
    <glyph glyph-name="registered" unicode="&#xae;" horiz-adv-x="894" 
d="M835 368c0 -258 -82 -381 -388 -381c-305 0 -388 123 -388 381c0 259 83 384 388 384c306 0 388 -125 388 -384zM761 369c0 117 -17 198 -70 248c-47 44 -123 65 -244 65c-122 0 -199 -21 -245 -66c-52 -50 -68 -131 -68 -248s16 -197 68 -248c46 -44 122 -63 245 -63
c121 0 197 19 244 63c53 50 70 131 70 249zM635 171v-1c0 -5 -4 -12 -11 -12h-55c-8 0 -13 3 -13 11l-6 88c-3 49 -31 65 -95 68l-94 5v-158c0 -9 -6 -14 -15 -14h-49c-10 0 -14 9 -14 14v397c0 9 7 18 18 18h184c88 0 142 -32 142 -124c0 -60 -25 -87 -91 -98v-15
c21 -2 42 -6 59 -18c20 -14 34 -37 36 -83zM547 454c0 47 -17 65 -65 65h-121v-133l100 4c60 2 86 11 86 64z" />
    <glyph glyph-name="macron" unicode="&#xaf;" horiz-adv-x="469" 
d="M391 685l-8 -49c-1 -6 -5 -9 -9 -9h-1c-23 7 -78 27 -138 27s-116 -20 -139 -27h-1c-4 0 -8 3 -9 9l-8 49v2c0 5 3 7 9 9c24 8 83 27 148 27c64 0 123 -19 147 -27c6 -2 9 -4 9 -9v-2z" />
    <glyph glyph-name="degree" unicode="&#xb0;" horiz-adv-x="403" 
d="M354 602c0 -83 -69 -150 -152 -150c-85 0 -152 67 -153 150c0 82 68 150 153 150c83 0 152 -68 152 -150zM288 602c0 46 -40 85 -87 85s-86 -39 -86 -85c0 -48 39 -85 87 -85c46 0 86 37 86 85z" />
    <glyph glyph-name="plusminus" unicode="&#xb1;" 
d="M519 322c0 -9 -6 -15 -16 -15h-167v-144c0 -10 -7 -16 -16 -16h-52c-9 0 -15 6 -15 15v144h-167c-10 0 -16 6 -16 15v50c0 9 7 15 17 15h166v145c0 10 7 16 16 16h52c9 0 16 -6 16 -16l-1 -144h167c10 0 16 -6 16 -16v-49zM520 65v-49c0 -10 -8 -16 -17 -16h-417
c-9 0 -16 6 -16 16v49c0 10 6 16 16 16h418c9 0 16 -6 16 -16z" />
    <glyph glyph-name="twosuperior" unicode="&#xb2;" horiz-adv-x="497" 
d="M406 346v-38c0 -8 -3 -14 -12 -14h-304c-9 0 -14 4 -14 13v62c0 24 9 38 24 49s114 78 114 78c42 29 106 62 106 118c0 65 -41 76 -103 76c-47 0 -87 -10 -132 -22h-4c-7 0 -12 5 -13 11l-8 31v4c0 7 5 12 10 14c13 5 73 24 156 24c99 0 171 -29 171 -138
c0 -84 -77 -129 -139 -169l-111 -72v-14l247 1c8 0 12 -5 12 -14z" />
    <glyph glyph-name="threesuperior" unicode="&#xb3;" horiz-adv-x="481" 
d="M401 417c0 -99 -88 -128 -172 -128c-70 0 -129 12 -138 15c-7 2 -11 5 -11 12v4l6 36c1 5 5 7 11 7h8c12 -3 61 -11 114 -11c47 0 105 11 105 69c0 55 -38 66 -84 72c-18 2 -35 4 -56 7c-7 0 -15 3 -15 12v29c0 11 9 12 14 12c21 3 39 5 55 7c50 9 78 24 78 65
c0 50 -38 65 -98 65c-54 0 -96 -13 -130 -22c-3 0 -6 -1 -8 -1c-6 0 -10 3 -12 9l-8 34v6c0 5 3 8 10 11c25 10 86 25 161 25c101 0 161 -41 161 -119c0 -62 -37 -86 -90 -97v-16c63 -10 99 -39 99 -103z" />
    <glyph glyph-name="acute" unicode="&#xb4;" horiz-adv-x="337" 
d="M263 709c1 -2 2 -4 2 -6c0 -3 -2 -5 -4 -7l-140 -100c-2 -1 -4 -2 -6 -2c-3 0 -5 1 -8 4l-33 41c-1 2 -1 4 -1 6s1 5 3 7l139 103c2 1 4 1 6 1s5 -1 7 -4z" />
    <glyph glyph-name="mu" unicode="&#xb5;" horiz-adv-x="583" 
d="M518 128c0 -113 -52 -141 -157 -141c-91 0 -146 13 -210 35l11 -59v-144c0 -9 -5 -13 -13 -15l-65 -14h-3c-8 0 -12 6 -12 14v705c0 9 6 13 14 15l65 14h3c8 0 11 -6 11 -14v-434s79 -29 171 -29c79 0 92 23 92 91v357c0 9 5 13 14 15l65 14h3c8 0 11 -6 11 -14v-396z
" />
    <glyph glyph-name="paragraph" unicode="&#xb6;" horiz-adv-x="683" 
d="M452 -180c0 -6 -4 -13 -10 -15l-62 -15h-2c-5 0 -11 5 -11 11v481l-93 -2h-13c-120 0 -218 36 -218 228c0 159 70 231 231 230l165 -1c4 0 13 -9 13 -13v-904zM614 -160c0 -6 -4 -13 -10 -15l-62 -15h-2c-5 0 -10 5 -10 11v901c0 6 3 14 9 15l62 15h2c6 0 11 -4 11 -11
v-901zM367 356v305h-88c-107 0 -140 -34 -140 -153c0 -134 62 -149 140 -151z" />
    <glyph glyph-name="periodcentered" unicode="&#xb7;" horiz-adv-x="181" 
d="M141 245c0 -10 -7 -16 -16 -16h-69c-9 0 -16 6 -16 16v78c0 9 7 16 16 16h69c9 0 16 -7 16 -16v-78z" />
    <glyph glyph-name="cedilla" unicode="&#xb8;" horiz-adv-x="322" 
d="M252 -118c0 -62 -41 -83 -99 -83c-45 0 -66 6 -74 8c-5 1 -7 5 -7 9v2l3 26c0 4 3 7 9 7h2c7 -1 25 -5 49 -5c22 0 43 6 43 35c0 30 -21 36 -43 36c-24 0 -42 -4 -49 -5h-3c-5 0 -8 2 -9 7l-3 26v1c0 5 2 8 6 9c9 2 27 8 79 8c69 0 96 -32 96 -81z" />
    <glyph glyph-name="onesuperior" unicode="&#xb9;" horiz-adv-x="381" 
d="M235 306c0 -9 -5 -13 -14 -13h-44c-9 0 -14 4 -14 13v367l-79 4c-8 0 -13 1 -13 12v32c0 11 4 12 11 13l139 18h2c7 0 12 -6 12 -13v-433z" />
    <glyph glyph-name="ordmasculine" unicode="&#xba;" horiz-adv-x="441" 
d="M372 588c0 -87 -16 -163 -150 -163c-135 0 -151 76 -151 163s16 164 151 164c134 0 150 -77 150 -164zM307 588c0 71 -3 113 -85 113s-85 -42 -85 -113s3 -114 85 -114s85 43 85 114zM369 354v-26c0 -9 -6 -15 -15 -15h-264c-9 0 -15 6 -15 15v26c0 9 6 14 14 14h265
c9 0 15 -5 15 -14z" />
    <glyph glyph-name="guillemotright" unicode="&#xbb;" horiz-adv-x="531" 
d="M476 296c2 -2 2 -5 2 -7c0 -3 0 -6 -2 -8l-166 -239c-2 -3 -6 -5 -10 -5c-2 0 -3 1 -5 2l-45 30c-3 2 -5 6 -5 9c0 2 1 4 2 5l149 206l-149 206c-1 1 -2 3 -2 5c0 3 2 7 5 9l45 31c2 0 3 1 5 1c4 0 8 -2 10 -5zM283 296c2 -2 3 -5 3 -7c0 -3 -1 -6 -3 -8l-166 -239
c-2 -3 -6 -5 -10 -5c-1 0 -3 1 -4 2l-44 30c-3 2 -5 6 -5 9c0 2 0 4 1 5l149 206l-149 206c-1 1 -1 3 -1 5c0 3 2 7 5 9l44 31c1 1 3 1 4 1c4 0 8 -2 10 -5z" />
    <glyph glyph-name="onequarter" unicode="&#xbc;" horiz-adv-x="984" 
d="M904 154v-34c0 -9 -3 -14 -13 -14h-55v-93c0 -10 -5 -13 -14 -13h-43c-9 0 -14 3 -14 13v93h-243c-9 0 -13 6 -13 15v39c0 2 1 9 4 14l198 272c2 3 8 7 12 7h99c9 0 14 -4 14 -13v-272h55c10 0 13 -5 13 -14zM701 699l-472 -699c-2 -2 -5 -4 -7 -4s-4 1 -5 2l-40 27
c-2 2 -3 5 -3 7s0 4 1 6l472 699c2 3 5 4 7 4s4 -1 5 -2l40 -27c2 -1 3 -4 3 -7c0 -2 0 -4 -1 -6zM235 306c0 -9 -5 -13 -14 -13h-44c-9 0 -14 4 -14 13v367l-79 4c-8 0 -13 1 -13 12v32c0 11 4 12 11 13l139 18h2c7 0 12 -6 12 -13v-433zM765 168v227h-19l-162 -227h181z
" />
    <glyph glyph-name="onehalf" unicode="&#xbd;" horiz-adv-x="1021" 
d="M930 51v-37c0 -9 -3 -14 -13 -14h-303c-9 0 -14 3 -14 13v61c0 24 9 39 24 50s113 78 113 78c42 28 107 62 107 117c0 65 -41 77 -103 77c-47 0 -88 -11 -133 -22h-4c-7 0 -11 4 -13 11l-7 31v4c0 7 4 11 10 13c13 5 73 24 155 24c100 0 172 -28 172 -137
c0 -84 -78 -130 -139 -169l-111 -72v-14h246c9 0 13 -4 13 -14zM701 699l-472 -699c-2 -2 -5 -4 -7 -4s-4 1 -5 2l-40 27c-2 2 -3 5 -3 7s0 4 1 6l472 699c2 3 5 4 7 4s4 -1 5 -2l40 -27c2 -1 3 -4 3 -7c0 -2 0 -4 -1 -6zM235 306c0 -9 -5 -13 -14 -13h-44
c-9 0 -14 4 -14 13v367l-79 4c-8 0 -13 1 -13 12v32c0 11 4 12 11 13l139 18h2c7 0 12 -6 12 -13v-433z" />
    <glyph glyph-name="threequarters" unicode="&#xbe;" horiz-adv-x="1101" 
d="M1021 155v-34c0 -9 -4 -15 -13 -15h-55v-93c0 -9 -5 -13 -14 -13h-43c-9 0 -15 4 -15 13v94h-243c-9 0 -12 5 -12 14v39c0 2 0 10 4 14l198 273c2 3 7 6 12 6h98c9 0 14 -4 14 -13v-271h56c9 0 13 -6 13 -14zM401 417c0 -99 -88 -128 -172 -128c-70 0 -129 12 -138 15
c-7 2 -11 5 -11 12v4l6 36c1 5 5 7 11 7h8c12 -3 61 -11 114 -11c47 0 105 11 105 69c0 55 -38 66 -84 72c-18 2 -35 4 -56 7c-7 0 -15 3 -15 12v29c0 11 9 12 14 12c21 3 39 5 55 7c50 9 78 24 78 65c0 50 -38 65 -98 65c-54 0 -96 -13 -130 -22c-3 0 -6 -1 -8 -1
c-6 0 -10 3 -12 9l-8 34v6c0 5 3 8 10 11c25 10 86 25 161 25c101 0 161 -41 161 -119c0 -62 -37 -86 -90 -97v-16c63 -10 99 -39 99 -103zM817 699l-472 -699c-1 -2 -4 -4 -7 -4c-2 0 -4 1 -5 2l-39 27c-3 2 -4 5 -4 7s1 4 2 6l472 699c1 3 4 4 7 4c2 0 3 -1 5 -2l39 -27
c3 -1 4 -4 4 -7c0 -2 -1 -4 -2 -6zM882 168v227h-19l-163 -227h182z" />
    <glyph glyph-name="questiondown" unicode="&#xbf;" 
d="M519 37c1 -2 1 -3 1 -5c0 -5 -3 -10 -12 -13c-14 -5 -109 -32 -202 -32c-136 0 -237 47 -237 175c0 101 82 144 110 165c41 28 106 53 106 120c0 33 -2 42 -5 64v3c0 9 6 11 17 11h60c11 0 14 0 17 -12c2 -11 7 -37 7 -63c0 -108 -49 -126 -122 -177
c-22 -16 -88 -50 -88 -112c0 -79 80 -91 142 -91c77 0 155 22 173 26c5 1 8 2 11 2c5 0 8 -3 10 -12zM378 610c0 -10 -6 -16 -15 -16h-71c-10 0 -16 6 -16 16v113c0 10 6 16 16 16h71c9 0 15 -6 15 -16v-113z" />
    <glyph glyph-name="Agrave" unicode="&#xc0;" horiz-adv-x="711" 
d="M698 19c1 -2 1 -5 1 -7c0 -7 -4 -12 -12 -12h-75c-6 0 -14 6 -16 11l-101 294h-281l-99 -296c-2 -5 -10 -9 -16 -9h-76c-7 0 -11 5 -11 12c0 2 1 5 2 7l253 707c2 7 12 13 18 13h146c5 0 15 -6 18 -13zM470 386l-96 275h-41l-94 -275h231zM440 846l-33 -41
c-2 -3 -5 -4 -8 -4c-2 0 -3 1 -5 2l-141 100c-2 2 -3 4 -3 7c0 2 0 4 2 6l34 43c2 3 5 4 8 4c2 0 4 0 5 -1l139 -103c3 -2 4 -5 4 -7s-1 -4 -2 -6z" />
    <glyph glyph-name="Aacute" unicode="&#xc1;" horiz-adv-x="711" 
d="M698 19c1 -2 1 -5 1 -7c0 -7 -4 -12 -12 -12h-75c-6 0 -14 6 -16 11l-101 294h-281l-99 -296c-2 -5 -10 -9 -16 -9h-76c-7 0 -11 5 -11 12c0 2 1 5 2 7l253 707c2 7 12 13 18 13h146c5 0 15 -6 18 -13zM470 386l-96 275h-41l-94 -275h231zM444 916c1 -2 2 -4 2 -6
s-1 -5 -4 -7l-140 -100c-2 -1 -4 -2 -6 -2s-5 1 -8 4l-32 41c-2 2 -2 4 -2 6s1 5 3 7l139 103c2 1 4 2 6 2s5 -2 8 -5z" />
    <glyph glyph-name="Acircumflex" unicode="&#xc2;" horiz-adv-x="711" 
d="M698 19c1 -2 1 -5 1 -7c0 -7 -4 -12 -12 -12h-75c-6 0 -14 6 -16 11l-101 294h-281l-99 -296c-2 -5 -10 -9 -16 -9h-76c-7 0 -11 5 -11 12c0 2 1 5 2 7l253 707c2 7 12 13 18 13h146c5 0 15 -6 18 -13zM470 386l-96 275h-41l-94 -275h231zM510 847l-32 -39
c-3 -3 -6 -4 -8 -4s-4 1 -6 2l-111 87l-112 -87c-1 -1 -3 -2 -5 -2c-3 0 -5 1 -8 4l-32 39c-1 1 -2 3 -2 5c0 3 1 6 4 7l138 102h34l138 -102c3 -1 4 -4 4 -7c0 -2 -1 -4 -2 -5z" />
    <glyph glyph-name="Atilde" unicode="&#xc3;" horiz-adv-x="711" 
d="M698 19c1 -2 1 -5 1 -7c0 -7 -4 -12 -12 -12h-75c-6 0 -14 6 -16 11l-101 294h-281l-99 -296c-2 -5 -10 -9 -16 -9h-76c-7 0 -11 5 -11 12c0 2 1 5 2 7l253 707c2 7 12 13 18 13h146c5 0 15 -6 18 -13zM470 386l-96 275h-41l-94 -275h231zM518 880c0 -3 -2 -6 -5 -8
c-18 -15 -60 -47 -100 -47c-23 0 -44 10 -64 19c-23 11 -42 23 -62 23c-25 0 -48 -18 -68 -34c-2 -2 -5 -4 -8 -4c-4 0 -7 3 -9 6l-20 39c-1 2 -2 5 -2 7c0 4 3 6 6 8c18 16 60 48 100 48c23 -1 44 -10 64 -20c22 -10 42 -22 62 -22c25 0 48 17 68 34c2 1 5 3 8 3
c4 0 7 -3 8 -6l21 -39c1 -2 1 -5 1 -7z" />
    <glyph glyph-name="Adieresis" unicode="&#xc4;" horiz-adv-x="711" 
d="M698 19c1 -2 1 -5 1 -7c0 -7 -4 -12 -12 -12h-75c-6 0 -14 6 -16 11l-101 294h-281l-99 -296c-2 -5 -10 -9 -16 -9h-76c-7 0 -11 5 -11 12c0 2 1 5 2 7l253 707c2 7 12 13 18 13h146c5 0 15 -6 18 -13zM470 386l-96 275h-41l-94 -275h231zM515 913v-59
c0 -5 -5 -10 -12 -10h-102c-6 0 -11 5 -11 10v59c0 6 5 11 11 11h102c7 0 12 -5 12 -11zM316 913v-59c0 -5 -5 -10 -11 -10h-102c-6 0 -11 5 -11 10v59c0 6 5 11 11 11h102c6 0 11 -5 11 -11z" />
    <glyph glyph-name="Aring" unicode="&#xc5;" horiz-adv-x="711" 
d="M698 19c1 -2 1 -5 1 -7c0 -7 -4 -12 -12 -12h-75c-6 0 -14 6 -16 11l-101 294h-281l-99 -296c-2 -5 -10 -9 -16 -9h-76c-7 0 -11 5 -11 12c0 2 1 5 2 7l253 707c2 7 12 13 18 13h146c5 0 15 -6 18 -13zM488 875c0 -86 -47 -116 -131 -116c-85 0 -131 30 -131 116
s46 116 131 116c84 0 131 -30 131 -116zM470 386l-96 275h-41l-94 -275h231zM415 875c0 50 -11 72 -58 72c-48 0 -59 -22 -59 -72c0 -51 11 -72 59 -72c47 0 58 22 58 72z" />
    <glyph glyph-name="AE" unicode="&#xc6;" horiz-adv-x="872" 
d="M815 16c0 -9 -6 -16 -15 -16h-381c-9 0 -16 7 -16 16v305h-184l-103 -312c-2 -5 -10 -9 -16 -9h-77c-7 0 -11 5 -11 12c0 2 1 5 2 7l237 707c3 7 13 13 19 13h529c9 0 16 -7 16 -16v-52c0 -8 -7 -16 -16 -16h-296v-244h282c9 0 16 -7 16 -16v-53c0 -8 -7 -16 -16 -16
h-282v-243h297c9 0 15 -7 15 -16v-51zM403 657h-78l-82 -255h160v255z" />
    <glyph glyph-name="Ccedilla" unicode="&#xc7;" horiz-adv-x="661" 
d="M621 52c0 -1 1 -3 1 -6c0 -6 -2 -13 -16 -17c-43 -14 -116 -36 -230 -36c-248 0 -321 131 -321 378s73 377 321 377c114 0 187 -22 230 -36c14 -4 16 -11 16 -16c0 -3 -1 -6 -1 -7l-9 -45c-2 -9 -7 -12 -14 -12c-3 0 -7 0 -10 1c-46 12 -120 31 -203 31
c-184 0 -227 -89 -227 -292s43 -294 227 -294c83 0 157 17 203 29c3 1 7 2 10 2c7 0 12 -4 14 -13zM484 -119c0 -61 -41 -82 -99 -82c-45 0 -66 6 -75 8c-4 1 -6 4 -6 9v2l3 25c0 5 3 7 9 7h2c7 0 25 -5 49 -5c22 0 43 7 43 36s-21 35 -43 35c-24 0 -42 -4 -49 -4h-3
c-5 0 -8 2 -9 6l-3 26c0 1 -1 2 -1 2c0 5 3 8 7 9c9 2 26 8 79 8c69 0 96 -32 96 -82z" />
    <glyph glyph-name="Egrave" unicode="&#xc8;" horiz-adv-x="637" 
d="M580 16c0 -9 -7 -16 -16 -16h-457c-9 0 -17 7 -17 16v707c0 9 8 16 17 16h457c9 0 16 -7 16 -16v-52c0 -8 -7 -16 -16 -16h-374v-228h359c9 0 16 -7 16 -16v-53c0 -8 -7 -16 -16 -16h-359v-259h374c9 0 16 -7 16 -16v-51zM425 846l-33 -41c-3 -3 -5 -4 -8 -4
c-2 0 -4 1 -6 2l-140 100c-2 2 -4 5 -4 7s1 4 2 6l35 43c2 3 5 5 7 5s4 -1 6 -2l139 -103c2 -2 3 -5 3 -7s0 -4 -1 -6z" />
    <glyph glyph-name="Eacute" unicode="&#xc9;" horiz-adv-x="637" 
d="M580 16c0 -9 -7 -16 -16 -16h-457c-9 0 -17 7 -17 16v707c0 9 8 16 17 16h457c9 0 16 -7 16 -16v-52c0 -8 -7 -16 -16 -16h-374v-228h359c9 0 16 -7 16 -16v-53c0 -8 -7 -16 -16 -16h-359v-259h374c9 0 16 -7 16 -16v-51zM447 916c1 -2 2 -4 2 -6c0 -3 -1 -5 -4 -7
l-140 -100c-2 -1 -4 -2 -6 -2s-5 1 -8 4l-32 41c-2 2 -2 4 -2 6s1 5 3 7l139 103c2 1 4 1 6 1s5 -1 8 -4z" />
    <glyph glyph-name="Ecircumflex" unicode="&#xca;" horiz-adv-x="637" 
d="M580 16c0 -9 -7 -16 -16 -16h-457c-9 0 -17 7 -17 16v707c0 9 8 16 17 16h457c9 0 16 -7 16 -16v-52c0 -8 -7 -16 -16 -16h-374v-228h359c9 0 16 -7 16 -16v-53c0 -8 -7 -16 -16 -16h-359v-259h374c9 0 16 -7 16 -16v-51zM496 847l-32 -39c-3 -3 -6 -4 -8 -4s-4 1 -6 2
l-111 87l-112 -87c-1 -1 -3 -2 -5 -2c-3 0 -5 1 -8 4l-32 39c-1 1 -2 3 -2 5c0 3 1 6 4 7l138 102h34l138 -102c3 -1 4 -4 4 -7c0 -2 -1 -4 -2 -5z" />
    <glyph glyph-name="Edieresis" unicode="&#xcb;" horiz-adv-x="637" 
d="M580 16c0 -9 -7 -16 -16 -16h-457c-9 0 -17 7 -17 16v707c0 9 8 16 17 16h457c9 0 16 -7 16 -16v-52c0 -8 -7 -16 -16 -16h-374v-228h359c9 0 16 -7 16 -16v-53c0 -8 -7 -16 -16 -16h-359v-259h374c9 0 16 -7 16 -16v-51zM496 913v-59c0 -5 -5 -10 -12 -10l-102 -1
c-6 0 -11 6 -11 11v59c0 6 5 11 11 11h102c7 0 12 -5 12 -11zM297 913v-59c0 -5 -5 -10 -11 -10l-102 -1c-6 0 -11 6 -11 11v59c0 6 5 11 11 11h102c6 0 11 -5 11 -11z" />
    <glyph glyph-name="Igrave" unicode="&#xcc;" horiz-adv-x="281" 
d="M190 15c0 -8 -7 -15 -16 -15h-67c-9 0 -17 7 -17 15v712c0 9 6 12 13 13l74 12h2c8 0 11 -7 11 -13v-724zM216 846l-33 -41c-2 -3 -5 -4 -8 -4c-2 0 -4 1 -5 2l-141 100c-2 2 -3 5 -3 7s0 4 2 6l34 43c2 3 5 5 8 5c2 0 4 -1 5 -2l139 -103c3 -2 4 -5 4 -7s-1 -4 -2 -6z
" />
    <glyph glyph-name="Iacute" unicode="&#xcd;" horiz-adv-x="281" 
d="M190 15c0 -8 -7 -15 -16 -15h-67c-9 0 -17 7 -17 15v712c0 9 6 12 13 13l74 12h2c8 0 11 -7 11 -13v-724zM226 916c1 -2 2 -4 2 -6s-1 -5 -4 -7l-140 -100c-2 -1 -4 -2 -6 -2s-5 1 -8 4l-32 41c-2 2 -2 4 -2 6s1 5 3 7l139 103c2 1 4 2 6 2s5 -2 7 -5z" />
    <glyph glyph-name="Icircumflex" unicode="&#xce;" horiz-adv-x="281" 
d="M190 15c0 -8 -7 -15 -16 -15h-67c-9 0 -17 7 -17 15v712c0 9 6 12 13 13l74 12h2c8 0 11 -7 11 -13v-724zM299 847l-32 -39c-3 -3 -6 -4 -8 -4s-4 1 -6 2l-111 87l-112 -87c-1 -1 -3 -2 -5 -2c-3 0 -6 1 -8 4l-32 39c-2 1 -2 3 -2 5c0 3 1 6 4 7l138 102h34l138 -102
c3 -1 4 -4 4 -7c0 -2 -1 -4 -2 -5z" />
    <glyph glyph-name="Idieresis" unicode="&#xcf;" horiz-adv-x="281" 
d="M190 15c0 -8 -7 -15 -16 -15h-67c-9 0 -17 7 -17 15v712c0 9 6 12 13 13l74 12h2c8 0 11 -7 11 -13v-724zM301 913v-59c0 -5 -5 -10 -12 -10l-101 -1c-7 0 -12 6 -12 11v59c0 6 5 11 12 11h101c7 0 12 -5 12 -11zM102 913v-59c0 -5 -5 -10 -11 -10l-102 -1
c-6 0 -11 6 -11 11v59c0 6 5 11 11 11h102c6 0 11 -5 11 -11z" />
    <glyph glyph-name="Eth" unicode="&#xd0;" horiz-adv-x="793" 
d="M737 370c0 -311 -117 -370 -340 -370h-274c-9 0 -17 7 -17 16v319h-81c-9 0 -16 8 -16 17v46c0 9 7 15 16 15h81v310c0 9 8 16 17 16h274c223 0 340 -59 340 -369zM635 372c0 256 -80 286 -252 286h-177v-245h250c9 0 15 -6 15 -15v-46c0 -9 -6 -17 -15 -17h-250v-254
h177c172 1 252 35 252 291z" />
    <glyph glyph-name="Ntilde" unicode="&#xd1;" horiz-adv-x="835" 
d="M745 15c0 -8 -7 -15 -16 -15h-148c-9 0 -15 8 -19 16l-339 643h-35l2 -644c0 -8 -7 -15 -16 -15h-67c-9 0 -17 7 -17 15v709c0 8 8 15 17 15h174c9 0 15 -8 19 -16l338 -652h9l-1 654c0 10 6 14 15 14h69c11 0 15 -5 15 -14v-710zM604 880c0 -3 -3 -6 -6 -8
c-18 -15 -60 -47 -99 -47c-24 0 -45 10 -65 19c-22 11 -42 23 -62 23c-25 0 -48 -18 -68 -34c-2 -2 -5 -4 -8 -4c-4 0 -7 3 -8 6l-21 39c-1 2 -1 5 -1 7c0 4 2 6 5 8c18 16 60 48 100 48c23 -1 44 -10 64 -20c23 -10 42 -22 62 -22c25 0 48 17 68 34c2 1 6 3 8 3
c4 0 7 -3 9 -6l20 -39c1 -2 2 -5 2 -7z" />
    <glyph glyph-name="Ograve" unicode="&#xd2;" horiz-adv-x="781" 
d="M725 370c0 -224 -52 -383 -335 -383s-335 159 -335 383c0 223 52 382 335 382s335 -159 335 -382zM622 370c0 185 -20 299 -232 299s-231 -115 -231 -300c0 -184 19 -299 231 -299s232 115 232 300zM462 846l-33 -41c-3 -3 -5 -4 -8 -4c-2 0 -4 1 -6 2l-140 100
c-2 2 -4 5 -4 7s1 4 2 6l35 43c2 3 5 5 7 5s4 -1 6 -2l139 -103c2 -2 3 -5 3 -7s0 -4 -1 -6z" />
    <glyph glyph-name="Oacute" unicode="&#xd3;" horiz-adv-x="781" 
d="M725 370c0 -224 -52 -383 -335 -383s-335 159 -335 383c0 223 52 382 335 382s335 -159 335 -382zM622 370c0 185 -20 299 -232 299s-231 -115 -231 -300c0 -184 19 -299 231 -299s232 115 232 300zM480 916c1 -2 2 -4 2 -6s-1 -5 -4 -7l-140 -100c-2 -1 -3 -2 -5 -2
c-3 0 -6 1 -8 4l-33 41c-1 2 -2 4 -2 6s1 5 4 7l139 103c1 1 3 2 5 2c3 0 5 -2 8 -5z" />
    <glyph glyph-name="Ocircumflex" unicode="&#xd4;" horiz-adv-x="781" 
d="M725 370c0 -224 -52 -383 -335 -383s-335 159 -335 383c0 223 52 382 335 382s335 -159 335 -382zM622 370c0 185 -20 299 -232 299s-231 -115 -231 -300c0 -184 19 -299 231 -299s232 115 232 300zM543 847l-33 -39c-2 -3 -5 -4 -8 -4c-2 0 -3 1 -5 2l-112 87l-111 -87
c-2 -1 -3 -2 -5 -2c-3 0 -6 1 -8 4l-33 39c-1 1 -1 3 -1 5c0 3 1 6 3 7l139 102h33l139 -102c2 -1 3 -4 3 -7c0 -2 0 -4 -1 -5z" />
    <glyph glyph-name="Otilde" unicode="&#xd5;" horiz-adv-x="781" 
d="M725 370c0 -224 -52 -383 -335 -383s-335 159 -335 383c0 223 52 382 335 382s335 -159 335 -382zM622 370c0 185 -20 299 -232 299s-231 -115 -231 -300c0 -184 19 -299 231 -299s232 115 232 300zM549 880c0 -3 -3 -6 -5 -8c-19 -15 -61 -47 -100 -47
c-24 0 -45 10 -65 19c-22 11 -42 23 -62 23c-25 0 -48 -18 -68 -34c-2 -2 -5 -4 -8 -4c-4 0 -6 3 -8 6l-21 39c-1 2 -1 5 -1 7c0 4 2 6 5 8c18 16 61 48 100 48c23 -1 44 -10 65 -20c22 -10 41 -22 61 -22c25 0 48 17 68 34c2 1 6 3 8 3c4 0 7 -3 9 -6l20 -39
c1 -2 2 -5 2 -7z" />
    <glyph glyph-name="Odieresis" unicode="&#xd6;" horiz-adv-x="781" 
d="M725 370c0 -224 -52 -383 -335 -383s-335 159 -335 383c0 223 52 382 335 382s335 -159 335 -382zM622 370c0 185 -20 299 -232 299s-231 -115 -231 -300c0 -184 19 -299 231 -299s232 115 232 300zM542 913v-59c0 -5 -5 -10 -11 -10h-102c-7 0 -12 5 -12 10v59
c0 6 5 11 12 11h102c6 0 11 -5 11 -11zM344 913v-59c0 -5 -5 -10 -12 -10h-102c-6 0 -11 5 -11 10v59c0 6 5 11 11 11h102c7 0 12 -5 12 -11z" />
    <glyph glyph-name="multiply" unicode="&#xd7;" 
d="M521 153c1 -1 2 -2 2 -4c0 -3 -3 -6 -5 -8l-39 -38c-2 -3 -6 -4 -9 -4c-1 0 -2 0 -3 1l-172 171l-173 -171c0 -1 -2 -1 -3 -1c-3 0 -7 1 -9 4l-39 38c-2 2 -4 5 -4 8c0 2 0 3 1 4l173 172l-173 172c-1 1 -1 2 -1 4c0 3 2 7 4 9l39 38c2 2 6 3 9 3c1 0 3 0 3 -1l173 -171
l172 171c1 1 2 1 3 1c3 0 7 -1 9 -3l39 -38c2 -2 5 -6 5 -9c0 -2 -1 -3 -2 -4l-173 -172z" />
    <glyph glyph-name="Oslash" unicode="&#xd8;" horiz-adv-x="796" 
d="M740 721l-65 -77c47 -68 60 -163 60 -274c0 -224 -52 -383 -334 -383c-108 0 -181 23 -232 64l-59 -70c-2 -2 -5 -3 -8 -3c-2 0 -4 1 -6 2l-39 32c-3 3 -5 5 -5 7s1 5 3 7l66 77c-43 67 -55 160 -55 267c0 223 52 382 335 382c102 0 174 -21 224 -58l61 71c2 3 5 4 8 4
c2 0 4 -1 6 -3l39 -31c3 -3 5 -5 5 -8c0 -2 -1 -4 -4 -6zM632 370c0 78 -4 144 -26 193l-377 -442c34 -33 88 -51 171 -51c212 0 232 115 232 300zM565 624c-34 29 -86 45 -165 45c-212 0 -231 -115 -231 -300c0 -73 3 -136 22 -185z" />
    <glyph glyph-name="Ugrave" unicode="&#xd9;" horiz-adv-x="760" 
d="M680 268c0 -152 -43 -281 -300 -281c-228 0 -300 100 -300 276v464c0 9 6 12 13 13l74 12h2c8 0 11 -7 11 -13v-483c0 -118 36 -186 201 -186c136 0 199 48 199 170v487c0 9 5 12 13 13l74 12h2c8 0 11 -7 11 -13v-471zM448 846l-32 -41c-3 -3 -6 -4 -8 -4s-4 1 -6 2
l-140 100c-3 2 -4 5 -4 7s1 4 2 6l34 43c3 3 6 5 8 5s4 -1 6 -2l139 -103c2 -2 3 -5 3 -7s0 -4 -2 -6z" />
    <glyph glyph-name="Uacute" unicode="&#xda;" horiz-adv-x="760" 
d="M680 268c0 -152 -43 -281 -300 -281c-228 0 -300 100 -300 276v464c0 9 6 12 13 13l74 12h2c8 0 11 -7 11 -13v-483c0 -118 36 -186 201 -186c136 0 199 48 199 170v487c0 9 5 12 13 13l74 12h2c8 0 11 -7 11 -13v-471zM477 916c1 -2 2 -4 2 -6s-1 -5 -4 -7l-140 -100
c-2 -1 -4 -2 -5 -2c-3 0 -6 1 -8 4l-33 41c-1 2 -2 4 -2 6s1 5 4 7l139 103c1 1 3 2 5 2c3 0 5 -2 8 -5z" />
    <glyph glyph-name="Ucircumflex" unicode="&#xdb;" horiz-adv-x="760" 
d="M680 268c0 -152 -43 -281 -300 -281c-228 0 -300 100 -300 276v464c0 9 6 12 13 13l74 12h2c8 0 11 -7 11 -13v-483c0 -118 36 -186 201 -186c136 0 199 48 199 170v487c0 9 5 12 13 13l74 12h2c8 0 11 -7 11 -13v-471zM533 847l-32 -39c-2 -3 -5 -4 -8 -4
c-2 0 -4 1 -5 2l-112 87l-111 -87c-2 -1 -4 -2 -6 -2s-5 1 -8 4l-32 39c-1 1 -2 3 -2 5c0 3 1 6 4 7l138 102h34l138 -102c3 -1 4 -4 4 -7c0 -2 -1 -4 -2 -5z" />
    <glyph glyph-name="Udieresis" unicode="&#xdc;" horiz-adv-x="760" 
d="M680 268c0 -152 -43 -281 -300 -281c-228 0 -300 100 -300 276v464c0 9 6 12 13 13l74 12h2c8 0 11 -7 11 -13v-483c0 -118 36 -186 201 -186c136 0 199 48 199 170v487c0 9 5 12 13 13l74 12h2c8 0 11 -7 11 -13v-471zM338 913v-59c0 -5 -5 -11 -11 -11h-102
c-6 0 -11 6 -11 11v59c0 6 5 11 11 11h102c6 0 11 -5 11 -11zM536 913v-59c0 -5 -5 -11 -11 -11h-102c-6 0 -11 6 -11 11v59c0 6 5 11 11 11h102c6 0 11 -5 11 -11z" />
    <glyph glyph-name="Yacute" unicode="&#xdd;" horiz-adv-x="637" 
d="M642 721l-274 -420v-286c0 -8 -7 -15 -16 -15h-67c-9 0 -16 7 -16 15v287l-273 419c-1 2 -2 3 -2 5c0 7 6 13 12 13h85c8 0 13 -3 17 -11l214 -342l210 343c4 7 8 10 16 10h84c7 0 12 -7 12 -13c0 -2 -1 -3 -2 -5zM414 916c1 -2 2 -4 2 -6s-1 -5 -4 -7l-140 -100
c-2 -1 -3 -2 -5 -2c-3 0 -6 1 -8 4l-33 42c-1 1 -2 3 -2 5c0 3 1 5 4 7l139 103c1 1 3 2 5 2c3 0 5 -2 8 -5z" />
    <glyph glyph-name="Thorn" unicode="&#xde;" horiz-adv-x="700" 
d="M662 376c0 -62 -10 -125 -54 -169c-53 -53 -140 -59 -215 -59c-12 0 -24 0 -35 1l-168 2v-136c0 -8 -7 -15 -16 -15h-67c-9 0 -17 7 -17 15v712c0 9 6 12 13 13l74 12h2c8 0 11 -7 11 -13v-142h238c72 0 139 -11 182 -55c33 -34 52 -86 52 -166zM560 375
c0 54 -13 88 -34 108c-29 28 -73 33 -126 33h-210v-294l161 5c77 2 139 3 175 38c22 21 34 55 34 110z" />
    <glyph glyph-name="germandbls" unicode="&#xdf;" horiz-adv-x="578" 
d="M535 171c0 -123 -78 -184 -197 -184c-45 0 -89 6 -127 19c-4 1 -9 4 -9 12c0 1 1 3 1 4l9 44c1 5 6 9 12 9h3c14 -4 57 -15 99 -15c63 0 116 34 116 104c0 138 -159 137 -159 221c0 78 110 66 110 183c0 74 -45 110 -115 110c-77 0 -116 -22 -116 -107v-753
c0 -9 -5 -13 -14 -14l-64 -14h-3c-8 0 -12 6 -12 14v767c0 108 45 181 206 181c119 0 210 -50 210 -180c0 -94 -48 -129 -110 -164c-8 -5 -11 -11 -11 -18c0 -6 4 -13 12 -17c57 -28 159 -62 159 -202z" />
    <glyph glyph-name="agrave" unicode="&#xe0;" horiz-adv-x="557" 
d="M493 104c0 -71 -17 -87 -86 -103c-30 -7 -78 -14 -132 -14c-91 0 -232 5 -232 167c0 132 76 141 170 156l187 30v44c0 31 -2 55 -34 68c-19 7 -46 11 -88 11c-75 0 -143 -19 -181 -28c-2 -1 -5 -1 -7 -1c-4 0 -9 2 -10 8l-10 49c-1 1 -1 2 -1 3c0 7 7 11 11 12
c31 11 117 32 211 32c72 0 118 -10 148 -26c52 -29 54 -78 54 -129v-279zM400 74v197l-169 -28c-46 -8 -92 -11 -92 -86c0 -95 77 -101 138 -101c43 0 86 6 123 18zM382 639l-33 -41c-2 -3 -5 -4 -8 -4c-2 0 -3 1 -5 2l-140 100c-3 2 -4 4 -4 7c0 2 0 4 2 6l34 43
c2 3 5 4 8 4c2 0 4 0 5 -1l139 -103c3 -2 4 -5 4 -7s-1 -4 -2 -6z" />
    <glyph glyph-name="aacute" unicode="&#xe1;" horiz-adv-x="557" 
d="M493 104c0 -71 -17 -87 -86 -103c-30 -7 -78 -14 -132 -14c-91 0 -232 5 -232 167c0 132 76 141 170 156l187 30v44c0 31 -2 55 -34 68c-19 7 -46 11 -88 11c-75 0 -143 -19 -181 -28c-2 -1 -5 -1 -7 -1c-4 0 -9 2 -10 8l-10 49c-1 1 -1 2 -1 3c0 7 7 11 11 12
c31 11 117 32 211 32c72 0 118 -10 148 -26c52 -29 54 -78 54 -129v-279zM400 74v197l-169 -28c-46 -8 -92 -11 -92 -86c0 -95 77 -101 138 -101c43 0 86 6 123 18zM391 709c1 -2 2 -4 2 -6c0 -3 -1 -5 -4 -7l-140 -100c-2 -1 -4 -2 -6 -2s-5 1 -8 4l-32 41c-2 2 -2 4 -2 6
s1 5 3 7l139 103c2 1 4 1 6 1s5 -1 8 -4z" />
    <glyph glyph-name="acircumflex" unicode="&#xe2;" horiz-adv-x="557" 
d="M493 104c0 -71 -17 -87 -86 -103c-30 -7 -78 -14 -132 -14c-91 0 -232 5 -232 167c0 132 76 141 170 156l187 30v44c0 31 -2 55 -34 68c-19 7 -46 11 -88 11c-75 0 -143 -19 -181 -28c-2 -1 -5 -1 -7 -1c-4 0 -9 2 -10 8l-10 49c-1 1 -1 2 -1 3c0 7 7 11 11 12
c31 11 117 32 211 32c72 0 118 -10 148 -26c52 -29 54 -78 54 -129v-279zM400 74v197l-169 -28c-46 -8 -92 -11 -92 -86c0 -95 77 -101 138 -101c43 0 86 6 123 18zM439 640l-32 -39c-3 -3 -6 -4 -8 -4s-4 1 -6 2l-111 87l-112 -87c-1 -1 -3 -2 -5 -2c-3 0 -5 1 -8 4l-32 39
c-1 1 -2 3 -2 5c0 3 1 6 4 7l138 102h34l138 -102c3 -1 4 -4 4 -7c0 -2 -1 -4 -2 -5z" />
    <glyph glyph-name="atilde" unicode="&#xe3;" horiz-adv-x="557" 
d="M493 104c0 -71 -17 -87 -86 -103c-30 -7 -78 -14 -132 -14c-91 0 -232 5 -232 167c0 132 76 141 170 156l187 30v44c0 31 -2 55 -34 68c-19 7 -46 11 -88 11c-75 0 -143 -19 -181 -28c-2 -1 -5 -1 -7 -1c-4 0 -9 2 -10 8l-10 49c-1 1 -1 2 -1 3c0 7 7 11 11 12
c31 11 117 32 211 32c72 0 118 -10 148 -26c52 -29 54 -78 54 -129v-279zM400 74v197l-169 -28c-46 -8 -92 -11 -92 -86c0 -95 77 -101 138 -101c43 0 86 6 123 18zM448 672c0 -4 -3 -6 -5 -8c-19 -16 -61 -48 -100 -48c-24 0 -45 10 -65 20c-22 10 -42 22 -62 22
c-25 0 -48 -17 -68 -34c-2 -1 -5 -3 -8 -3c-4 0 -6 2 -8 6l-21 39c-1 2 -1 4 -1 7s2 6 5 8c18 15 61 47 100 47c23 0 44 -10 64 -19c23 -11 42 -23 62 -23c25 0 48 18 68 34c2 2 6 3 8 3c4 0 7 -2 9 -6l20 -39c1 -1 2 -4 2 -6z" />
    <glyph glyph-name="adieresis" unicode="&#xe4;" horiz-adv-x="557" 
d="M493 104c0 -71 -17 -87 -86 -103c-30 -7 -78 -14 -132 -14c-91 0 -232 5 -232 167c0 132 76 141 170 156l187 30v44c0 31 -2 55 -34 68c-19 7 -46 11 -88 11c-75 0 -143 -19 -181 -28c-2 -1 -5 -1 -7 -1c-4 0 -9 2 -10 8l-10 49c-1 1 -1 2 -1 3c0 7 7 11 11 12
c31 11 117 32 211 32c72 0 118 -10 148 -26c52 -29 54 -78 54 -129v-279zM400 74v197l-169 -28c-46 -8 -92 -11 -92 -86c0 -95 77 -101 138 -101c43 0 86 6 123 18zM246 699v-59c0 -6 -5 -11 -12 -11h-101c-7 0 -12 5 -12 11v59c0 5 5 10 12 10h101c7 0 12 -5 12 -10z
M444 699v-59c0 -6 -5 -11 -11 -11h-102c-6 0 -11 5 -11 11v59c0 5 5 10 11 10h102c6 0 11 -5 11 -10z" />
    <glyph glyph-name="aring" unicode="&#xe5;" horiz-adv-x="557" 
d="M493 104c0 -71 -17 -87 -86 -103c-30 -7 -78 -14 -132 -14c-91 0 -232 5 -232 167c0 132 76 141 170 156l187 30v44c0 31 -2 55 -34 68c-19 7 -46 11 -88 11c-75 0 -143 -19 -181 -28c-2 -1 -5 -1 -7 -1c-4 0 -9 2 -10 8l-10 49c-1 1 -1 2 -1 3c0 7 7 11 11 12
c31 11 117 32 211 32c72 0 118 -10 148 -26c52 -29 54 -78 54 -129v-279zM400 74v197l-169 -28c-46 -8 -92 -11 -92 -86c0 -95 77 -101 138 -101c43 0 86 6 123 18zM412 684c0 -79 -43 -108 -121 -108s-121 29 -121 108s43 107 121 107s121 -28 121 -107zM345 684
c0 46 -10 66 -54 66s-54 -20 -54 -67c0 -46 10 -66 54 -66s54 21 54 67z" />
    <glyph glyph-name="ae" unicode="&#xe6;" horiz-adv-x="917" 
d="M869 264v-50c0 -8 -8 -15 -15 -15h-358c1 -51 12 -73 33 -97c29 -34 77 -44 141 -44c63 0 100 13 144 25c2 1 3 1 5 1c5 0 9 -3 11 -10l12 -41v-4c0 -6 -4 -10 -11 -12c-38 -16 -112 -30 -181 -30c-142 0 -186 63 -204 99c-26 -48 -62 -99 -189 -99
c-98 0 -214 21 -214 167c0 115 65 138 157 156l204 40c0 31 -6 55 -19 73c-20 29 -56 40 -104 40c-68 0 -168 -23 -188 -28c0 -1 -1 -1 -2 -1c-5 0 -11 5 -12 12l-8 45c-1 1 -1 2 -1 3c0 6 4 9 10 12c19 9 118 32 193 32c70 0 161 -15 184 -95c30 64 85 95 187 95
c104 0 157 -31 190 -85c28 -46 35 -117 35 -189zM773 270c-1 37 -2 81 -11 116c-16 61 -51 82 -127 82s-112 -30 -128 -88c-8 -29 -11 -67 -11 -111zM405 204v77l-162 -32c-57 -12 -105 -24 -105 -94c0 -79 58 -99 129 -99c76 0 138 27 138 148z" />
    <glyph glyph-name="ccedilla" unicode="&#xe7;" horiz-adv-x="483" 
d="M449 33c1 -2 1 -4 1 -6c0 -8 -6 -11 -10 -13c-25 -12 -96 -26 -158 -26c-189 0 -239 88 -239 275c0 186 50 275 239 275c62 0 133 -15 158 -26c4 -2 10 -5 10 -14c0 -1 0 -3 -1 -5l-8 -39c-1 -8 -6 -11 -12 -11h-6c-22 6 -79 23 -131 23c-117 0 -153 -50 -153 -203
s36 -203 153 -203c52 0 109 14 131 20c2 1 4 1 6 1c6 0 10 -3 12 -11zM383 -118c0 -62 -40 -83 -99 -83c-45 0 -65 6 -74 8c-4 1 -7 5 -7 9v2l3 26c1 4 4 7 9 7h3c7 -1 25 -5 48 -5s43 6 43 35c0 30 -20 36 -43 36s-42 -4 -49 -5h-2c-6 0 -9 2 -9 7l-4 26v1c0 5 3 8 7 9
c9 2 26 8 79 8c68 0 95 -32 95 -81z" />
    <glyph glyph-name="egrave" unicode="&#xe8;" horiz-adv-x="562" 
d="M513 273v-49c0 -7 -7 -15 -14 -15h-360c0 -53 11 -83 34 -108c28 -32 74 -43 140 -43c62 0 102 13 145 25c2 1 4 1 6 1c5 0 8 -3 11 -10l11 -41c1 -1 1 -3 1 -4c0 -6 -4 -10 -11 -12c-39 -16 -105 -30 -174 -30c-196 0 -259 88 -259 275c0 173 39 276 236 276
c104 0 165 -31 199 -85c28 -46 35 -108 35 -180zM418 280c-1 36 -3 71 -12 106c-16 62 -53 81 -128 81c-77 0 -113 -20 -129 -81c-9 -34 -10 -71 -11 -107zM368 639l-33 -41c-2 -3 -5 -4 -8 -4c-2 0 -4 1 -5 2l-141 100c-2 2 -3 4 -3 7c0 2 0 4 2 6l34 43c2 3 5 4 8 4
c2 0 4 0 5 -1l139 -103c3 -2 4 -5 4 -7s-1 -4 -2 -6z" />
    <glyph glyph-name="eacute" unicode="&#xe9;" horiz-adv-x="562" 
d="M513 273v-49c0 -7 -7 -15 -14 -15h-360c0 -53 11 -83 34 -108c28 -32 74 -43 140 -43c62 0 102 13 145 25c2 1 4 1 6 1c5 0 8 -3 11 -10l11 -41c1 -1 1 -3 1 -4c0 -6 -4 -10 -11 -12c-39 -16 -105 -30 -174 -30c-196 0 -259 88 -259 275c0 173 39 276 236 276
c104 0 165 -31 199 -85c28 -46 35 -108 35 -180zM418 280c-1 36 -3 71 -12 106c-16 62 -53 81 -128 81c-77 0 -113 -20 -129 -81c-9 -34 -10 -71 -11 -107zM388 709c1 -2 2 -4 2 -6c0 -3 -2 -5 -4 -7l-141 -100c-1 -1 -3 -2 -5 -2c-3 0 -5 1 -8 4l-33 41c-1 2 -2 4 -2 6
s2 5 4 7l139 103c2 1 3 1 5 1c3 0 6 -1 8 -4z" />
    <glyph glyph-name="ecircumflex" unicode="&#xea;" horiz-adv-x="562" 
d="M513 273v-49c0 -7 -7 -15 -14 -15h-360c0 -53 11 -83 34 -108c28 -32 74 -43 140 -43c62 0 102 13 145 25c2 1 4 1 6 1c5 0 8 -3 11 -10l11 -41c1 -1 1 -3 1 -4c0 -6 -4 -10 -11 -12c-39 -16 -105 -30 -174 -30c-196 0 -259 88 -259 275c0 173 39 276 236 276
c104 0 165 -31 199 -85c28 -46 35 -108 35 -180zM418 280c-1 36 -3 71 -12 106c-16 62 -53 81 -128 81c-77 0 -113 -20 -129 -81c-9 -34 -10 -71 -11 -107zM441 640l-32 -39c-3 -3 -6 -4 -8 -4s-4 0 -6 2l-111 87l-112 -87c-1 -2 -3 -2 -5 -2c-3 0 -5 1 -8 4l-32 39
c-1 1 -2 3 -2 5c0 3 1 5 4 7l138 102h34l138 -102c3 -2 4 -4 4 -7c0 -2 -1 -4 -2 -5z" />
    <glyph glyph-name="edieresis" unicode="&#xeb;" horiz-adv-x="562" 
d="M513 273v-49c0 -7 -7 -15 -14 -15h-360c0 -53 11 -83 34 -108c28 -32 74 -43 140 -43c62 0 102 13 145 25c2 1 4 1 6 1c5 0 8 -3 11 -10l11 -41c1 -1 1 -3 1 -4c0 -6 -4 -10 -11 -12c-39 -16 -105 -30 -174 -30c-196 0 -259 88 -259 275c0 173 39 276 236 276
c104 0 165 -31 199 -85c28 -46 35 -108 35 -180zM418 280c-1 36 -3 71 -12 106c-16 62 -53 81 -128 81c-77 0 -113 -20 -129 -81c-9 -34 -10 -71 -11 -107zM443 699v-59c0 -6 -5 -11 -11 -11h-102c-7 0 -12 5 -12 11v59c0 5 5 10 12 10h102c6 0 11 -5 11 -10zM245 699v-59
c0 -6 -5 -11 -12 -11h-102c-6 0 -11 5 -11 11v59c0 5 5 10 11 10h102c7 0 12 -5 12 -10z" />
    <glyph glyph-name="igrave" unicode="&#xec;" horiz-adv-x="260" 
d="M176 15c0 -9 -6 -15 -15 -15h-63c-9 0 -15 6 -15 15v493c0 9 6 15 15 15h63c9 0 15 -6 15 -15v-493zM215 639l-33 -41c-2 -3 -5 -4 -8 -4c-2 0 -4 1 -5 2l-141 100c-2 2 -3 4 -3 7c0 2 0 4 2 6l34 43c2 3 5 4 8 4c2 0 4 0 5 -1l139 -103c3 -2 4 -5 4 -7s-1 -4 -2 -6z" />
    <glyph glyph-name="iacute" unicode="&#xed;" horiz-adv-x="260" 
d="M176 15c0 -9 -6 -15 -15 -15h-63c-9 0 -15 6 -15 15v493c0 9 6 15 15 15h63c9 0 15 -6 15 -15v-493zM214 709c2 -2 2 -4 2 -6c0 -3 -1 -5 -3 -7l-141 -100c-1 -1 -3 -2 -5 -2c-3 0 -6 1 -8 4l-33 41c-1 2 -2 4 -2 6s1 5 4 7l139 103c1 1 3 1 5 1c3 0 6 -1 8 -4z" />
    <glyph glyph-name="icircumflex" unicode="&#xee;" horiz-adv-x="260" 
d="M176 15c0 -9 -6 -15 -15 -15h-62c-9 0 -16 6 -16 15v493c0 9 7 15 16 15h62c9 0 15 -6 15 -15v-493zM285 640l-33 -39c-2 -3 -5 -4 -8 -4c-1 0 -3 0 -5 2l-111 87l-112 -87c-1 -2 -3 -2 -5 -2c-3 0 -6 1 -8 4l-32 39c-2 1 -2 3 -2 5c0 3 1 5 3 7l139 102h33l139 -102
c2 -2 4 -4 4 -7c0 -2 -1 -4 -2 -5z" />
    <glyph glyph-name="idieresis" unicode="&#xef;" horiz-adv-x="260" 
d="M177 15c0 -9 -6 -15 -15 -15h-63c-9 0 -15 6 -15 15v493c0 9 6 15 15 15h63c9 0 15 -6 15 -15v-493zM291 699v-59c0 -6 -5 -11 -11 -11h-102c-7 0 -12 5 -12 11v59c0 5 5 10 12 10h102c6 0 11 -5 11 -10zM93 699v-59c0 -6 -5 -11 -12 -11h-102c-6 0 -11 5 -11 11v59
c0 5 5 10 11 10h102c7 0 12 -5 12 -10z" />
    <glyph glyph-name="eth" unicode="&#xf0;" horiz-adv-x="562" 
d="M519 293v-9c0 -115 -4 -297 -237 -297c-206 0 -239 141 -239 267c0 89 8 267 232 267c57 0 102 -20 135 -46l4 2c-16 104 -82 173 -116 195l-103 -66c-2 -1 -4 -2 -6 -2s-5 1 -7 4l-30 32c-1 2 -2 3 -2 5c0 3 2 5 5 7l84 54c-57 26 -137 27 -164 28c-15 0 -22 5 -22 16
v41c0 17 12 18 18 18h8c73 0 163 -11 234 -51l86 57c2 1 4 1 6 1c3 0 5 -1 7 -3l30 -34c1 -2 2 -3 2 -4c0 -4 -4 -7 -6 -9l-70 -44c92 -71 151 -200 151 -429zM422 253c0 104 -14 197 -141 197c-126 0 -141 -93 -141 -197c0 -103 15 -195 141 -195c127 0 141 92 141 195z
" />
    <glyph glyph-name="ntilde" unicode="&#xf1;" horiz-adv-x="580" 
d="M516 15c0 -9 -5 -15 -15 -15h-62c-10 0 -16 6 -16 15v366c0 64 -24 86 -89 86c-85 0 -172 -25 -172 -25v-427c0 -9 -5 -15 -15 -15h-62c-10 0 -16 6 -16 15v419c0 39 6 56 58 73s148 31 212 31c120 0 177 -36 177 -146v-377zM462 672c0 -4 -3 -6 -5 -8
c-18 -16 -61 -48 -100 -48c-23 0 -45 10 -65 20c-22 10 -42 22 -62 22c-24 0 -47 -17 -67 -34c-2 -1 -6 -3 -9 -3c-4 0 -6 2 -8 6l-20 39c-1 2 -2 4 -2 7s3 6 5 8c18 15 61 47 100 47c23 0 45 -10 65 -19c22 -11 42 -23 62 -23c24 0 47 18 67 34c2 2 6 3 9 3c4 0 6 -2 8 -6
l21 -39c0 -1 1 -4 1 -6z" />
    <glyph glyph-name="ograve" unicode="&#xf2;" horiz-adv-x="562" 
d="M519 262c0 -151 -25 -275 -238 -275c-212 0 -238 124 -238 275c0 152 26 276 238 276c213 0 238 -124 238 -276zM423 262c0 126 -6 205 -142 205c-135 0 -141 -79 -141 -205c0 -125 6 -204 141 -204c136 0 142 79 142 204zM370 639l-33 -41c-3 -3 -5 -4 -8 -4
c-2 0 -4 1 -5 2l-141 100c-2 2 -4 4 -4 7c0 2 1 4 2 6l35 43c2 3 5 4 8 4c1 0 3 0 5 -1l139 -103c2 -2 4 -5 4 -7s-1 -4 -2 -6z" />
    <glyph glyph-name="oacute" unicode="&#xf3;" horiz-adv-x="562" 
d="M519 262c0 -151 -25 -275 -238 -275c-212 0 -238 124 -238 275c0 152 26 276 238 276c213 0 238 -124 238 -276zM423 262c0 126 -6 205 -142 205c-135 0 -141 -79 -141 -205c0 -125 6 -204 141 -204c136 0 142 79 142 204zM384 709c1 -2 2 -4 2 -6c0 -3 -1 -5 -4 -7
l-140 -100c-2 -1 -4 -2 -6 -2s-5 1 -7 4l-33 41c-1 2 -2 4 -2 6s1 5 4 7l138 103c2 1 4 1 6 1c3 0 5 -1 8 -4z" />
    <glyph glyph-name="ocircumflex" unicode="&#xf4;" horiz-adv-x="562" 
d="M519 262c0 -151 -25 -275 -238 -275c-212 0 -238 124 -238 275c0 152 26 276 238 276c213 0 238 -124 238 -276zM423 262c0 126 -6 205 -142 205c-135 0 -141 -79 -141 -205c0 -125 6 -204 141 -204c136 0 142 79 142 204zM439 640l-32 -39c-3 -3 -6 -4 -8 -4s-4 0 -6 2
l-111 87l-112 -87c-1 -2 -3 -2 -5 -2c-3 0 -6 1 -8 4l-32 39c-2 1 -2 3 -2 5c0 3 1 5 4 7l138 102h34l138 -102c2 -2 4 -4 4 -7c0 -2 -1 -4 -2 -5z" />
    <glyph glyph-name="otilde" unicode="&#xf5;" horiz-adv-x="562" 
d="M519 262c0 -151 -25 -275 -238 -275c-212 0 -238 124 -238 275c0 152 26 276 238 276c213 0 238 -124 238 -276zM423 262c0 126 -6 205 -142 205c-135 0 -141 -79 -141 -205c0 -125 6 -204 141 -204c136 0 142 79 142 204zM450 672c0 -4 -3 -6 -5 -8
c-18 -16 -61 -48 -100 -48c-23 0 -45 10 -65 20c-22 10 -42 22 -62 22c-24 0 -47 -17 -67 -34c-2 -1 -6 -3 -9 -3c-4 0 -6 2 -8 6l-20 39c-1 2 -2 4 -2 7s3 6 5 8c18 15 61 47 100 47c23 0 45 -10 65 -19c22 -11 42 -23 62 -23c24 0 47 18 67 34c2 2 6 3 9 3c4 0 6 -2 8 -6
l21 -39c0 -1 1 -4 1 -6z" />
    <glyph glyph-name="odieresis" unicode="&#xf6;" horiz-adv-x="562" 
d="M519 262c0 -151 -25 -275 -238 -275c-212 0 -238 124 -238 275c0 152 26 276 238 276c213 0 238 -124 238 -276zM423 262c0 126 -6 205 -142 205c-135 0 -141 -79 -141 -205c0 -125 6 -204 141 -204c136 0 142 79 142 204zM439 699v-59c0 -6 -5 -11 -12 -11h-102
c-6 0 -11 5 -11 11v59c0 5 5 10 11 10h102c7 0 12 -5 12 -10zM240 699v-59c0 -6 -5 -11 -11 -11h-102c-6 0 -11 5 -11 11v59c0 5 5 10 11 10h102c6 0 11 -5 11 -10z" />
    <glyph glyph-name="divide" unicode="&#xf7;" 
d="M541 349v-51c0 -8 -7 -15 -17 -15h-459c-9 0 -16 7 -16 15v51c0 9 6 15 16 15h459c10 0 17 -6 17 -15zM349 197v-105c0 -6 -5 -11 -12 -11h-85c-6 0 -11 5 -11 11v105c0 6 5 11 11 11h85c7 0 12 -5 12 -11zM349 556v-105c0 -6 -5 -11 -12 -11h-85c-6 0 -11 5 -11 11v105
c0 6 5 11 11 11h85c7 0 12 -5 12 -11z" />
    <glyph glyph-name="oslash" unicode="&#xf8;" horiz-adv-x="604" 
d="M561 523l-58 -68c33 -50 40 -117 40 -193c0 -151 -26 -275 -240 -275c-75 0 -127 15 -162 42l-54 -63c-2 -2 -5 -4 -8 -4c-2 0 -4 1 -6 3l-28 24c-3 3 -5 5 -5 8c0 2 1 4 3 6l58 68c-32 49 -38 117 -38 191c0 152 25 276 240 276c74 0 125 -15 161 -41l54 63c2 2 4 3 7 3
c2 0 5 0 7 -2l28 -25c3 -2 4 -5 4 -7s-1 -4 -3 -6zM446 262c0 45 -1 84 -9 116l-243 -285c21 -23 55 -35 109 -35c137 0 143 79 143 204zM410 433c-21 22 -54 34 -107 34c-138 0 -144 -79 -144 -205c0 -43 1 -82 9 -113z" />
    <glyph glyph-name="ugrave" unicode="&#xf9;" horiz-adv-x="575" 
d="M511 192c0 -105 -24 -205 -223 -205c-173 0 -224 70 -224 204v318c0 9 6 13 14 15l65 14h3c8 0 11 -6 11 -14v-341c0 -86 31 -126 131 -126c119 0 130 59 130 128v324c0 9 5 13 14 14l64 15h4c8 0 11 -6 11 -14v-332zM377 639l-33 -41c-2 -3 -5 -4 -8 -4c-2 0 -4 1 -5 2
l-141 100c-2 2 -3 4 -3 7c0 2 0 4 2 6l34 43c2 3 5 4 8 4c2 0 4 0 5 -1l139 -103c3 -2 4 -5 4 -7s-1 -4 -2 -6z" />
    <glyph glyph-name="uacute" unicode="&#xfa;" horiz-adv-x="575" 
d="M511 192c0 -105 -24 -205 -223 -205c-173 0 -224 70 -224 204v318c0 9 6 13 14 15l65 14h3c8 0 11 -6 11 -14v-341c0 -86 31 -126 131 -126c119 0 130 59 130 128v324c0 9 5 13 14 14l64 15h4c8 0 11 -6 11 -14v-332zM389 709c2 -2 2 -4 2 -6c0 -3 -1 -5 -3 -7l-141 -100
c-1 -1 -3 -2 -5 -2c-3 0 -6 1 -8 4l-33 41c-1 2 -2 4 -2 6s1 5 4 7l139 103c1 1 3 1 5 1c3 0 6 -1 8 -4z" />
    <glyph glyph-name="ucircumflex" unicode="&#xfb;" horiz-adv-x="575" 
d="M511 192c0 -105 -24 -205 -223 -205c-173 0 -224 70 -224 204v318c0 9 6 13 14 15l65 14h3c8 0 11 -6 11 -14v-341c0 -86 31 -126 131 -126c119 0 130 59 130 128v324c0 9 5 13 14 14l64 15h4c8 0 11 -6 11 -14v-332zM445 640l-32 -39c-3 -3 -6 -4 -8 -4s-4 0 -6 2
l-111 87l-112 -87c-1 -2 -3 -2 -5 -2c-3 0 -5 1 -8 4l-32 39c-1 1 -2 3 -2 5c0 3 1 5 4 7l138 102h34l138 -102c3 -2 4 -4 4 -7c0 -2 -1 -4 -2 -5z" />
    <glyph glyph-name="udieresis" unicode="&#xfc;" horiz-adv-x="575" 
d="M511 192c0 -105 -24 -205 -223 -205c-173 0 -224 70 -224 204v318c0 9 6 13 14 15l65 14h3c8 0 11 -6 11 -14v-341c0 -86 31 -126 131 -126c119 0 130 59 130 128v324c0 9 5 13 14 14l64 15h4c8 0 11 -6 11 -14v-332zM248 699v-59c0 -6 -5 -11 -11 -11h-102
c-6 0 -11 5 -11 11v59c0 5 5 10 11 10h102c6 0 11 -5 11 -10zM446 699v-59c0 -6 -5 -11 -11 -11h-102c-6 0 -11 5 -11 11v59c0 5 5 10 11 10h102c6 0 11 -5 11 -10z" />
    <glyph glyph-name="yacute" unicode="&#xfd;" horiz-adv-x="513" 
d="M501 508l-181 -581c-29 -94 -60 -137 -171 -137c-39 0 -57 2 -75 5c-10 1 -12 7 -12 12v48c0 5 5 11 12 11h1c11 0 38 -1 58 -1c52 0 80 11 95 65l21 70h-47c-10 0 -17 6 -20 16l-162 492c0 1 -1 3 -1 4c0 7 6 13 14 13h69c10 0 13 -6 16 -14l133 -446h26l121 446
c2 8 7 14 18 14h72c7 0 13 -6 13 -13v-4zM366 708c1 -1 2 -3 2 -5c0 -3 -1 -6 -4 -7l-140 -101c-2 -1 -4 -1 -6 -1s-5 1 -7 4l-33 41c-2 2 -2 3 -2 5c0 3 1 6 3 8l139 102c2 2 4 2 6 2s5 -1 8 -4z" />
    <glyph glyph-name="thorn" unicode="&#xfe;" horiz-adv-x="575" 
d="M532 263c0 -185 -49 -276 -231 -276c-59 0 -114 9 -150 19l11 -60v-127c0 -9 -5 -13 -13 -15l-65 -14h-3c-8 0 -12 6 -12 14v919c0 9 5 13 14 14l65 15h3c8 0 11 -6 11 -14v-170l-10 -58s93 28 166 28c164 0 214 -84 214 -275zM436 262c0 158 -26 204 -134 204
c-58 0 -140 -22 -140 -22v-371s52 -16 129 -16c109 0 145 49 145 205z" />
    <glyph glyph-name="ydieresis" unicode="&#xff;" horiz-adv-x="513" 
d="M501 508l-181 -581c-29 -94 -60 -137 -171 -137c-39 0 -57 2 -75 5c-10 1 -12 7 -12 12v48c0 5 5 11 12 11h1c11 0 38 -1 58 -1c52 0 80 11 95 65l21 70h-47c-10 0 -17 6 -20 16l-162 492c0 1 -1 3 -1 4c0 7 6 13 14 13h69c10 0 13 -6 16 -14l133 -446h26l121 446
c2 8 7 14 18 14h72c7 0 13 -6 13 -13v-4zM418 699v-59c0 -6 -5 -11 -11 -11h-102c-7 0 -12 5 -12 11v59c0 5 5 10 12 10h102c6 0 11 -5 11 -10zM220 699v-59c0 -6 -5 -11 -12 -11h-102c-6 0 -11 5 -11 11v59c0 5 5 10 11 10h102c7 0 12 -5 12 -10z" />
    <glyph glyph-name="Lslash" horiz-adv-x="598" 
d="M583 16c0 -9 -7 -16 -16 -16h-443c-9 0 -16 7 -16 15v310l-70 -22h-4c-4 0 -8 2 -9 7l-16 51v3c0 5 4 8 8 10l91 28v325c0 9 5 12 13 13l73 12h3c8 0 11 -7 11 -13v-306l229 71c1 1 2 1 3 1c5 0 9 -3 10 -7l16 -53v-2c0 -5 -5 -9 -10 -10l-248 -77v-269h359
c9 0 16 -7 16 -16v-55z" />
    <glyph glyph-name="lslash" horiz-adv-x="340" 
d="M340 405c1 -1 1 -2 1 -2c0 -5 -5 -9 -10 -10l-130 -40v-249c0 -36 23 -42 43 -42c14 0 29 3 36 4c1 0 3 1 4 1c4 0 6 -2 8 -9l8 -41c0 -1 1 -2 1 -3c0 -8 -6 -11 -8 -11c-9 -4 -36 -13 -76 -13c-68 0 -109 35 -109 110v224l-70 -21c-2 0 -3 -1 -4 -1c-4 0 -8 3 -9 7
l-16 51v3c0 5 4 8 8 10l91 27v323c0 9 5 13 13 14l65 15h4c7 0 11 -6 11 -14v-309l110 34h4c4 0 8 -2 9 -6z" />
    <glyph glyph-name="minus" 
d="M499 348v-51c0 -9 -7 -15 -16 -15h-376c-9 0 -17 6 -17 15v51c0 9 7 15 16 15h377c10 0 16 -6 16 -15z" />
    <glyph glyph-name="fraction" horiz-adv-x="514" 
d="M520 699l-472 -699c-1 -2 -4 -4 -7 -4c-2 0 -4 1 -5 2l-39 27c-3 2 -4 5 -4 7s0 4 1 6l472 699c2 3 5 4 8 4c1 0 3 -1 4 -2l40 -27c2 -1 4 -4 4 -7c0 -2 -1 -4 -2 -6z" />
    <glyph glyph-name="fi" horiz-adv-x="575" 
d="M491 15c0 -9 -6 -15 -15 -15h-62c-9 0 -16 6 -16 15v438h-204v-438c0 -9 -5 -15 -14 -15h-63c-9 0 -16 6 -16 15v438h-77c-9 0 -15 5 -15 14v43c0 9 6 15 15 15h78v57c-1 47 9 92 33 120c30 36 74 50 150 50c83 0 146 -18 163 -23c8 -2 13 -6 13 -13v-2l-7 -43
c-1 -7 -5 -12 -11 -12c-1 0 -2 0 -3 1c-26 4 -69 18 -140 18c-79 0 -106 -18 -106 -98v-55h281c10 0 16 -6 16 -15v-495z" />
    <glyph glyph-name="fl" horiz-adv-x="611" 
d="M591 17v-3c0 -8 -6 -11 -8 -11c-8 -4 -36 -13 -76 -13c-67 0 -109 35 -109 111v352h-204v-438c0 -9 -5 -15 -14 -15h-63c-9 0 -16 6 -16 15v438h-77c-9 0 -15 5 -15 14v43c0 9 6 15 15 15h78l-1 85c0 98 49 142 151 142c56 0 99 -10 120 -15c8 -2 13 -7 13 -13v-2l-6 -41
c-1 -8 -5 -12 -13 -12c-1 0 -1 1 -1 1c-19 3 -55 10 -92 10c-51 0 -79 -12 -79 -65v-90h204v198c0 9 5 13 13 14l66 15h3c8 0 11 -6 11 -14v-634c0 -36 24 -42 44 -42c14 0 29 3 35 4c2 0 3 1 4 1c4 0 7 -2 8 -9z" />
    <glyph glyph-name="dotlessi" horiz-adv-x="260" 
d="M177 15c0 -9 -6 -15 -15 -15h-63c-9 0 -15 6 -15 15v493c0 9 6 15 15 15h63c9 0 15 -6 15 -15v-493z" />
    <glyph glyph-name="breve" horiz-adv-x="488" 
d="M413 730c0 -115 -60 -149 -169 -149s-170 34 -170 149c0 6 3 11 10 11h43c7 0 9 -5 9 -11c2 -64 26 -91 108 -91s106 27 107 91c1 6 3 11 10 11h43c7 0 9 -5 9 -11z" />
    <glyph glyph-name="dotaccent" horiz-adv-x="277" 
d="M203 694v-54c0 -9 -6 -15 -16 -15h-96c-10 0 -17 7 -17 15v54c0 9 7 15 17 15h96c10 0 16 -6 16 -15z" />
    <glyph glyph-name="ring" horiz-adv-x="392" 
d="M317 684c0 -79 -43 -108 -121 -108s-121 29 -121 108s43 107 121 107s121 -28 121 -107zM250 684c0 46 -10 66 -54 66s-54 -20 -54 -67c0 -46 10 -66 54 -66s54 21 54 67z" />
    <glyph glyph-name="hungarumlaut" horiz-adv-x="499" 
d="M257 715c2 -2 2 -4 2 -6s-1 -5 -3 -7l-141 -102c-1 -1 -3 -2 -5 -2c-3 0 -6 1 -8 4l-28 36c-1 2 -1 4 -1 6s1 5 3 7l139 103c2 1 4 2 6 2s5 -2 7 -5zM424 713c2 -1 2 -3 2 -5c0 -3 -1 -5 -3 -7l-141 -102c-1 -1 -3 -2 -5 -2c-3 0 -6 1 -8 4l-28 36c-1 2 -1 4 -1 6
s1 5 3 7l139 103c2 1 4 1 6 1s5 -1 7 -4z" />
    <glyph glyph-name="ogonek" horiz-adv-x="361" 
d="M287 -180v-1c0 -5 -5 -9 -9 -10c-19 -4 -40 -10 -87 -10c-60 0 -117 18 -117 91c0 74 66 135 103 167l40 -28c-33 -32 -71 -81 -71 -128c0 -34 17 -51 68 -51c29 0 43 7 59 8c5 0 9 -4 10 -9z" />
    <glyph glyph-name="caron" horiz-adv-x="465" 
d="M390 714c1 -1 2 -3 2 -5c0 -3 -2 -6 -4 -7l-139 -102h-33l-139 102c-2 1 -3 4 -3 7c0 2 0 4 1 5l33 38c2 3 5 5 8 5c2 0 4 -1 5 -2l112 -87l111 87c2 1 3 2 5 2c3 0 6 -2 8 -5z" />
    </font>
</defs>
</svg>
